<svg width="971" height="586" viewBox="0 0 971 586" fill="none" xmlns="http://www.w3.org/2000/svg">
<mask id="path-1-inside-1_356_39377" fill="white">
<path d="M1 8C1 3.58172 4.58172 0 9 0H962C966.418 0 970 3.58172 970 8V65H1V8Z"/>
</mask>
<path d="M1 8C1 3.58172 4.58172 0 9 0H962C966.418 0 970 3.58172 970 8V65H1V8Z" fill="white"/>
<path d="M257.224 37H265.378V35.02H259.474V31.69H264.694V29.71H259.474V26.38H265.18V24.4H257.224V37ZM266.641 37H268.945L270.979 33.688L273.013 37H275.335L272.185 32.068L274.975 28H272.635L270.979 30.52L269.323 28H266.983L269.773 32.068L266.641 37ZM276.734 40.6H278.786V36.154C279.434 36.784 280.442 37.18 281.54 37.18C283.826 37.18 285.842 35.524 285.842 32.5C285.842 29.476 283.772 27.82 281.666 27.82C280.298 27.82 279.38 28.378 278.786 28.99V28H276.734V40.6ZM281.198 35.416C279.884 35.416 278.786 34.444 278.786 33.148V31.834C278.786 30.538 279.884 29.584 281.198 29.584C282.62 29.584 283.772 30.52 283.772 32.5C283.772 34.48 282.62 35.416 281.198 35.416ZM287.685 37H289.737V23.86H287.685V37ZM296.347 37.18C299.155 37.18 301.099 35.182 301.099 32.5C301.099 29.818 299.155 27.82 296.347 27.82C293.521 27.82 291.577 29.818 291.577 32.5C291.577 35.182 293.521 37.18 296.347 37.18ZM296.347 35.362C294.817 35.362 293.629 34.336 293.629 32.5C293.629 30.664 294.817 29.638 296.347 29.638C297.877 29.638 299.047 30.664 299.047 32.5C299.047 34.336 297.877 35.362 296.347 35.362ZM302.943 37H304.995V31.294C305.553 30.196 306.435 29.62 307.425 29.62C307.713 29.62 307.875 29.638 308.019 29.674L308.091 29.62L308.361 27.964C308.181 27.874 307.911 27.82 307.587 27.82C306.471 27.82 305.607 28.414 304.995 29.116V28H302.943V37ZM313.602 37.18C315.798 37.18 317.274 36.064 317.85 34.048L317.796 33.958L315.996 33.85C315.672 34.804 314.916 35.434 313.638 35.434C312.198 35.434 311.19 34.534 311.1 33.058H317.994V32.428C317.994 29.53 316.158 27.82 313.602 27.82C311.208 27.82 309.102 29.692 309.102 32.5C309.102 35.308 310.902 37.18 313.602 37.18ZM311.136 31.564C311.388 30.25 312.378 29.494 313.602 29.494C314.898 29.494 315.924 30.232 316.05 31.564H311.136Z" fill="black"/>
<path d="M444.098 37.18C446.726 37.18 448.778 35.614 448.778 33.076C448.778 30.754 447.122 29.728 444.89 29.206C442.928 28.738 441.866 28.36 441.866 27.316C441.866 26.542 442.658 26.02 443.81 26.02C445.178 26.02 445.988 26.704 446.15 27.964L448.13 27.856L448.22 27.748C447.986 25.624 446.438 24.22 443.828 24.22C441.488 24.22 439.706 25.444 439.706 27.442C439.706 29.44 441.308 30.322 443.468 30.826C445.466 31.276 446.546 31.762 446.546 33.202C446.546 34.552 445.502 35.236 444.17 35.236C442.73 35.236 441.56 34.408 441.416 32.842L439.31 33.04L439.238 33.13C439.436 35.596 441.524 37.18 444.098 37.18ZM454.866 37.18C457.17 37.18 458.754 35.956 459.186 33.778L459.132 33.688L457.332 33.58C457.026 34.696 456.234 35.362 454.884 35.362C453.39 35.362 452.274 34.336 452.274 32.5C452.274 30.664 453.39 29.638 454.884 29.638C456.234 29.638 457.08 30.34 457.332 31.42L459.132 31.312L459.186 31.222C458.844 29.098 457.224 27.82 454.866 27.82C452.274 27.82 450.258 29.71 450.258 32.5C450.258 35.29 452.274 37.18 454.866 37.18ZM465.329 37.18C468.137 37.18 470.081 35.182 470.081 32.5C470.081 29.818 468.137 27.82 465.329 27.82C462.503 27.82 460.559 29.818 460.559 32.5C460.559 35.182 462.503 37.18 465.329 37.18ZM465.329 35.362C463.799 35.362 462.611 34.336 462.611 32.5C462.611 30.664 463.799 29.638 465.329 29.638C466.859 29.638 468.029 30.664 468.029 32.5C468.029 34.336 466.859 35.362 465.329 35.362ZM471.925 40.6H473.977V36.154C474.625 36.784 475.633 37.18 476.731 37.18C479.017 37.18 481.033 35.524 481.033 32.5C481.033 29.476 478.963 27.82 476.857 27.82C475.489 27.82 474.571 28.378 473.977 28.99V28H471.925V40.6ZM476.389 35.416C475.075 35.416 473.977 34.444 473.977 33.148V31.834C473.977 30.538 475.075 29.584 476.389 29.584C477.811 29.584 478.963 30.52 478.963 32.5C478.963 34.48 477.811 35.416 476.389 35.416ZM486.909 37.18C489.105 37.18 490.581 36.064 491.157 34.048L491.103 33.958L489.303 33.85C488.979 34.804 488.223 35.434 486.945 35.434C485.505 35.434 484.497 34.534 484.407 33.058H491.301V32.428C491.301 29.53 489.465 27.82 486.909 27.82C484.515 27.82 482.409 29.692 482.409 32.5C482.409 35.308 484.209 37.18 486.909 37.18ZM484.443 31.564C484.695 30.25 485.685 29.494 486.909 29.494C488.205 29.494 489.231 30.232 489.357 31.564H484.443Z" fill="black"/>
<path d="M625.554 37H628.002L632.304 24.4H629.856L627.084 32.932L626.796 34.498H626.76L626.472 32.932L623.7 24.4H621.252L625.554 37ZM635.27 37.18C636.512 37.18 637.502 36.55 638.204 35.794H638.258C638.6 36.784 639.374 37.108 640.166 37.108C640.508 37.108 640.85 37.072 641.3 36.928V35.452L641.246 35.416C641.084 35.452 640.976 35.47 640.85 35.47C640.364 35.47 640.13 35.146 640.13 34.57V30.88C640.13 28.954 638.618 27.82 636.476 27.82C634.712 27.82 633.164 28.738 632.822 30.646L632.912 30.718L634.694 30.808C634.856 29.908 635.486 29.458 636.404 29.458C637.43 29.458 638.132 29.926 638.132 30.898V31.384L635.522 31.654C633.722 31.834 632.408 32.788 632.408 34.498C632.408 36.154 633.668 37.18 635.27 37.18ZM635.648 35.506C634.928 35.506 634.37 35.128 634.37 34.39C634.37 33.742 634.838 33.22 635.792 33.094L638.132 32.824V34.138C637.412 34.966 636.656 35.506 635.648 35.506ZM642.947 37H644.999V23.86H642.947V37ZM648.296 26.83C648.998 26.83 649.574 26.254 649.574 25.552C649.574 24.85 648.998 24.274 648.296 24.274C647.594 24.274 647.018 24.85 647.018 25.552C647.018 26.254 647.594 26.83 648.296 26.83ZM647.27 37H649.322V28H647.27V37ZM655.357 37.18C656.707 37.18 657.607 36.64 658.183 36.028V37H660.235V23.86H658.183V28.846C657.499 28.216 656.545 27.82 655.411 27.82C653.107 27.82 651.127 29.476 651.127 32.5C651.127 35.524 653.251 37.18 655.357 37.18ZM655.771 35.416C654.349 35.416 653.197 34.48 653.197 32.5C653.197 30.52 654.349 29.584 655.753 29.584C657.085 29.584 658.183 30.556 658.183 31.852V33.166C658.183 34.462 657.085 35.416 655.771 35.416ZM664.977 37.18C666.219 37.18 667.209 36.55 667.911 35.794H667.965C668.307 36.784 669.081 37.108 669.873 37.108C670.215 37.108 670.557 37.072 671.007 36.928V35.452L670.953 35.416C670.791 35.452 670.683 35.47 670.557 35.47C670.071 35.47 669.837 35.146 669.837 34.57V30.88C669.837 28.954 668.325 27.82 666.183 27.82C664.419 27.82 662.871 28.738 662.529 30.646L662.619 30.718L664.401 30.808C664.563 29.908 665.193 29.458 666.111 29.458C667.137 29.458 667.839 29.926 667.839 30.898V31.384L665.229 31.654C663.429 31.834 662.115 32.788 662.115 34.498C662.115 36.154 663.375 37.18 664.977 37.18ZM665.355 35.506C664.635 35.506 664.077 35.128 664.077 34.39C664.077 33.742 664.545 33.22 665.499 33.094L667.839 32.824V34.138C667.119 34.966 666.363 35.506 665.355 35.506ZM675.441 37.18C676.053 37.18 676.431 37.126 676.953 37V35.362L676.899 35.326C676.611 35.398 676.395 35.434 676.053 35.434C675.369 35.434 675.027 35.092 675.027 34.498V29.764H677.043V28H675.027V26.02L673.119 25.354H672.957V28H671.283V29.764H672.957V34.678C672.957 36.37 673.965 37.18 675.441 37.18ZM682.68 37.18C684.876 37.18 686.352 36.064 686.928 34.048L686.874 33.958L685.074 33.85C684.75 34.804 683.994 35.434 682.716 35.434C681.276 35.434 680.268 34.534 680.178 33.058H687.072V32.428C687.072 29.53 685.236 27.82 682.68 27.82C680.286 27.82 678.18 29.692 678.18 32.5C678.18 35.308 679.98 37.18 682.68 37.18ZM680.214 31.564C680.466 30.25 681.456 29.494 682.68 29.494C683.976 29.494 685.002 30.232 685.128 31.564H680.214Z" fill="black"/>
<path d="M804.724 37H808.792C812.914 37 815.452 34.57 815.452 30.7C815.452 26.83 812.914 24.4 808.792 24.4H804.724V37ZM806.974 35.02V26.38H808.72C811.474 26.38 813.202 27.766 813.202 30.7C813.202 33.634 811.474 35.02 808.72 35.02H806.974ZM821.498 37.18C823.694 37.18 825.17 36.064 825.746 34.048L825.692 33.958L823.892 33.85C823.568 34.804 822.812 35.434 821.534 35.434C820.094 35.434 819.086 34.534 818.996 33.058H825.89V32.428C825.89 29.53 824.054 27.82 821.498 27.82C819.104 27.82 816.998 29.692 816.998 32.5C816.998 35.308 818.798 37.18 821.498 37.18ZM819.032 31.564C819.284 30.25 820.274 29.494 821.498 29.494C822.794 29.494 823.82 30.232 823.946 31.564H819.032ZM827.627 40.6H829.679V36.154C830.327 36.784 831.335 37.18 832.433 37.18C834.719 37.18 836.735 35.524 836.735 32.5C836.735 29.476 834.665 27.82 832.559 27.82C831.191 27.82 830.273 28.378 829.679 28.99V28H827.627V40.6ZM832.091 35.416C830.777 35.416 829.679 34.444 829.679 33.148V31.834C829.679 30.538 830.777 29.584 832.091 29.584C833.513 29.584 834.665 30.52 834.665 32.5C834.665 34.48 833.513 35.416 832.091 35.416ZM838.578 37H840.63V23.86H838.578V37ZM847.239 37.18C850.047 37.18 851.991 35.182 851.991 32.5C851.991 29.818 850.047 27.82 847.239 27.82C844.413 27.82 842.469 29.818 842.469 32.5C842.469 35.182 844.413 37.18 847.239 37.18ZM847.239 35.362C845.709 35.362 844.521 34.336 844.521 32.5C844.521 30.664 845.709 29.638 847.239 29.638C848.769 29.638 849.939 30.664 849.939 32.5C849.939 34.336 848.769 35.362 847.239 35.362ZM854.569 40.6H856.675L861.733 28H859.591L857.143 34.3H857.053L856.909 33.094L854.767 28H852.499L856.135 36.694L854.569 40.6Z" fill="black"/>
<path d="M0 8C0 3.02944 4.02944 -1 9 -1H962C966.971 -1 971 3.02944 971 8H969C969 4.13401 965.866 1 962 1H9C5.13401 1 2 4.13401 2 8H0ZM970 65H1H970ZM0 65V8C0 3.02944 4.02944 -1 9 -1V1C5.13401 1 2 4.13401 2 8V65H0ZM962 -1C966.971 -1 971 3.02944 971 8V65H969V8C969 4.13401 965.866 1 962 1V-1Z" fill="black" fill-opacity="0.08" mask="url(#path-1-inside-1_356_39377)"/>
<rect width="969" height="45" transform="translate(1 65)" fill="#F8F6F4"/>
<path d="M17.288 93.5H19.4L20.088 91.468H24.648L25.368 93.5H27.464L23.32 82.3H21.432L17.288 93.5ZM20.696 89.724L22.168 85.5L22.36 84.284H22.408L22.584 85.5L24.04 89.724H20.696ZM28.838 93.5H30.838V89.804H32.998C35.558 89.804 37.286 88.412 37.286 86.044C37.286 83.692 35.558 82.3 32.998 82.3H28.838V93.5ZM30.838 88.044V84.06H32.934C34.438 84.06 35.286 84.668 35.286 86.044C35.286 87.436 34.438 88.044 32.934 88.044H30.838ZM39.1349 93.5H41.1349V82.3H39.1349V93.5ZM46.6661 93.5H48.5861V86.476H48.6501L48.7301 87.18L51.2101 93.5H53.0501L55.5301 87.18L55.6101 86.476H55.6741V93.5H57.5941V82.3H55.5941L52.1221 91.036L48.6661 82.3H46.6661V93.5ZM61.8715 93.66C62.9755 93.66 63.8555 93.1 64.4795 92.428H64.5275C64.8315 93.308 65.5195 93.596 66.2235 93.596C66.5275 93.596 66.8315 93.564 67.2315 93.436V92.124L67.1835 92.092C67.0395 92.124 66.9435 92.14 66.8315 92.14C66.3995 92.14 66.1915 91.852 66.1915 91.34V88.06C66.1915 86.348 64.8475 85.34 62.9435 85.34C61.3755 85.34 59.9995 86.156 59.6955 87.852L59.7755 87.916L61.3595 87.996C61.5035 87.196 62.0635 86.796 62.8795 86.796C63.7915 86.796 64.4155 87.212 64.4155 88.076V88.508L62.0955 88.748C60.4955 88.908 59.3275 89.756 59.3275 91.276C59.3275 92.748 60.4475 93.66 61.8715 93.66ZM62.2075 92.172C61.5675 92.172 61.0715 91.836 61.0715 91.18C61.0715 90.604 61.4875 90.14 62.3355 90.028L64.4155 89.788V90.956C63.7755 91.692 63.1035 92.172 62.2075 92.172ZM68.6959 93.5H70.5199V88.284C71.0159 87.548 71.7999 86.94 72.6639 86.94C73.6239 86.94 74.1359 87.484 74.1359 88.46V93.5H75.9599V87.996C75.9599 86.428 74.9999 85.34 73.2559 85.34C72.0879 85.34 71.1119 85.916 70.5199 86.54V85.5H68.6959V93.5ZM80.1059 93.66C81.2099 93.66 82.0899 93.1 82.7139 92.428H82.7619C83.0659 93.308 83.7539 93.596 84.4579 93.596C84.7619 93.596 85.0659 93.564 85.4659 93.436V92.124L85.4179 92.092C85.2739 92.124 85.1779 92.14 85.0659 92.14C84.6339 92.14 84.4259 91.852 84.4259 91.34V88.06C84.4259 86.348 83.0819 85.34 81.1779 85.34C79.6099 85.34 78.2339 86.156 77.9299 87.852L78.0099 87.916L79.5939 87.996C79.7379 87.196 80.2979 86.796 81.1139 86.796C82.0259 86.796 82.6499 87.212 82.6499 88.076V88.508L80.3299 88.748C78.7299 88.908 77.5619 89.756 77.5619 91.276C77.5619 92.748 78.6819 93.66 80.1059 93.66ZM80.4419 92.172C79.8019 92.172 79.3059 91.836 79.3059 91.18C79.3059 90.604 79.7219 90.14 80.5699 90.028L82.6499 89.788V90.956C82.0099 91.692 81.3379 92.172 80.4419 92.172ZM90.1564 96.86C92.6364 96.86 94.0284 95.5 94.0284 93.324V85.5H92.2524V86.284C91.7724 85.804 91.0044 85.34 89.8524 85.34C87.8684 85.34 86.0924 86.86 86.0924 89.42C86.0924 91.98 87.7564 93.5 89.8364 93.5C90.9244 93.5 91.5804 93.18 92.2524 92.572V93.308C92.2524 94.476 91.6444 95.324 90.1724 95.324C89.1164 95.324 88.6204 94.844 88.4604 94.22L86.6684 94.332L86.5884 94.412C86.8284 95.74 87.9484 96.86 90.1564 96.86ZM90.1244 91.964C88.9244 91.964 87.8684 91.26 87.8684 89.42C87.8684 87.58 88.9244 86.876 90.1244 86.876C91.2924 86.876 92.2524 87.724 92.2524 88.972V89.9C92.2524 91.1 91.4204 91.964 90.1244 91.964ZM99.6549 93.66C101.607 93.66 102.919 92.668 103.431 90.876L103.383 90.796L101.783 90.7C101.495 91.548 100.823 92.108 99.6869 92.108C98.4069 92.108 97.5109 91.308 97.4309 89.996H103.559V89.436C103.559 86.86 101.927 85.34 99.6549 85.34C97.5269 85.34 95.6549 87.004 95.6549 89.5C95.6549 91.996 97.2549 93.66 99.6549 93.66ZM97.4629 88.668C97.6869 87.5 98.5669 86.828 99.6549 86.828C100.807 86.828 101.719 87.484 101.831 88.668H97.4629ZM105.102 93.5H106.926V88.124C107.358 87.468 107.982 86.94 108.702 86.94C109.502 86.94 109.838 87.436 109.838 88.204V93.5H111.662V88.012C112.11 87.324 112.686 86.94 113.406 86.94C114.206 86.94 114.574 87.42 114.574 88.172V93.5H116.398V87.708C116.398 86.3 115.582 85.34 113.934 85.34C112.942 85.34 112.078 85.74 111.326 86.476C110.958 85.756 110.35 85.34 109.326 85.34C108.35 85.34 107.55 85.756 106.926 86.444V85.5H105.102V93.5ZM121.967 93.66C123.919 93.66 125.231 92.668 125.743 90.876L125.695 90.796L124.095 90.7C123.807 91.548 123.135 92.108 121.999 92.108C120.719 92.108 119.823 91.308 119.743 89.996H125.871V89.436C125.871 86.86 124.239 85.34 121.967 85.34C119.839 85.34 117.967 87.004 117.967 89.5C117.967 91.996 119.567 93.66 121.967 93.66ZM119.775 88.668C119.999 87.5 120.879 86.828 121.967 86.828C123.119 86.828 124.031 87.484 124.143 88.668H119.775ZM127.415 93.5H129.239V88.284C129.735 87.548 130.519 86.94 131.383 86.94C132.343 86.94 132.855 87.484 132.855 88.46V93.5H134.679V87.996C134.679 86.428 133.719 85.34 131.975 85.34C130.807 85.34 129.831 85.916 129.239 86.54V85.5H127.415V93.5ZM139.423 93.66C139.967 93.66 140.303 93.612 140.767 93.5V92.044L140.719 92.012C140.463 92.076 140.271 92.108 139.967 92.108C139.359 92.108 139.055 91.804 139.055 91.276V87.068H140.847V85.5H139.055V83.74L137.359 83.148H137.215V85.5H135.727V87.068H137.215V91.436C137.215 92.94 138.111 93.66 139.423 93.66Z" fill="#0B0E0F"/>
<rect x="0.5" y="109.5" width="970" height="56" fill="white"/>
<path d="M17.28 140.5H18.708L19.352 138.596H23.594L24.252 140.5H25.68L22.152 130.7H20.808L17.28 140.5ZM19.772 137.364L21.298 132.954L21.48 131.904L21.662 132.954L23.174 137.364H19.772ZM26.9351 140.5H28.2791V137.112H30.2951C32.4791 137.112 33.9211 135.908 33.9211 133.906C33.9211 131.904 32.4791 130.7 30.2951 130.7H26.9351V140.5ZM28.2791 135.88V131.932H30.3231C31.7791 131.932 32.5771 132.548 32.5771 133.906C32.5771 135.264 31.7791 135.88 30.3231 135.88H28.2791ZM35.603 140.5H36.947V130.7H35.603V140.5ZM41.8511 140.5H43.1951V130.7H41.8511V140.5ZM45.1037 140.5H46.3357V135.614C46.7977 134.97 47.4417 134.452 48.1137 134.452C48.9117 134.452 49.2337 134.928 49.2337 135.67V140.5H50.4657V135.446C50.9277 134.802 51.5297 134.452 52.2297 134.452C52.9997 134.452 53.3637 134.9 53.3637 135.614V140.5H54.5957V135.25C54.5957 134.158 53.9657 133.36 52.5377 133.36C51.6697 133.36 50.8997 133.738 50.2137 134.368C49.8637 133.696 49.3597 133.36 48.4637 133.36C47.5957 133.36 46.8817 133.738 46.3357 134.326V133.5H45.1037V140.5ZM56.383 143.3H57.615V139.758C58.147 140.318 58.973 140.64 59.869 140.64C61.703 140.64 63.047 139.24 63.047 137C63.047 134.76 61.563 133.36 59.841 133.36C58.763 133.36 58.021 133.836 57.615 134.27V133.5H56.383V143.3ZM59.645 139.52C58.539 139.52 57.615 138.652 57.615 137.658V136.314C57.615 135.32 58.539 134.48 59.645 134.48C60.821 134.48 61.815 135.236 61.815 137C61.815 138.764 60.821 139.52 59.645 139.52ZM67.7654 140.64C69.9074 140.64 71.3634 139.086 71.3634 137C71.3634 134.914 69.9074 133.36 67.7654 133.36C65.6234 133.36 64.1674 134.914 64.1674 137C64.1674 139.086 65.6234 140.64 67.7654 140.64ZM67.7654 139.52C66.4354 139.52 65.3994 138.652 65.3994 137C65.3994 135.348 66.4354 134.48 67.7654 134.48C69.0954 134.48 70.1314 135.348 70.1314 137C70.1314 138.652 69.0954 139.52 67.7654 139.52ZM72.8439 140.5H74.0759V135.796C74.5379 134.928 75.2659 134.452 76.0499 134.452C76.2879 134.452 76.3859 134.466 76.4979 134.494L76.6939 133.472C76.5679 133.402 76.3859 133.36 76.1339 133.36C75.2519 133.36 74.5519 133.864 74.0759 134.41V133.5H72.8439V140.5ZM80.5045 140.64C80.9805 140.64 81.2465 140.598 81.6245 140.5V139.464C81.3725 139.506 81.2045 139.548 80.8825 139.548C80.2805 139.548 80.0145 139.254 80.0145 138.792V134.62H81.6945V133.5H80.0145V131.848L78.7825 131.4V133.5H77.3965V134.62H78.7825V138.876C78.7825 140.038 79.4405 140.64 80.5045 140.64Z" fill="#0B0E0F"/>
<circle cx="267.5" cy="137.5" r="11" fill="#B4F481" stroke="black"/>
<path fill-rule="evenodd" clip-rule="evenodd" d="M273.007 133.197C273.312 133.477 273.333 133.951 273.053 134.257L266.178 141.757C266.04 141.908 265.846 141.995 265.641 142C265.437 142.004 265.239 141.925 265.095 141.78L261.97 138.655C261.677 138.362 261.677 137.888 261.97 137.595C262.263 137.302 262.737 137.302 263.03 137.595L265.601 140.166L271.947 133.243C272.227 132.938 272.701 132.917 273.007 133.197Z" fill="#22282F"/>
<circle cx="450" cy="137.5" r="11" fill="#B4F481" stroke="black"/>
<path fill-rule="evenodd" clip-rule="evenodd" d="M455.507 133.197C455.812 133.477 455.833 133.951 455.553 134.257L448.678 141.757C448.54 141.908 448.346 141.995 448.141 142C447.937 142.004 447.739 141.925 447.595 141.78L444.47 138.655C444.177 138.362 444.177 137.888 444.47 137.595C444.763 137.302 445.237 137.302 445.53 137.595L448.101 140.166L454.447 133.243C454.727 132.938 455.201 132.917 455.507 133.197Z" fill="#22282F"/>
<circle cx="632.5" cy="137.5" r="11" fill="#B4F481" stroke="black"/>
<path fill-rule="evenodd" clip-rule="evenodd" d="M638.007 133.197C638.312 133.477 638.333 133.951 638.053 134.257L631.178 141.757C631.04 141.908 630.846 141.995 630.641 142C630.437 142.004 630.239 141.925 630.095 141.78L626.97 138.655C626.677 138.362 626.677 137.888 626.97 137.595C627.263 137.302 627.737 137.302 628.03 137.595L630.601 140.166L636.947 133.243C637.227 132.938 637.701 132.917 638.007 133.197Z" fill="#22282F"/>
<circle cx="815" cy="137.5" r="11" fill="#B4F481" stroke="black"/>
<path fill-rule="evenodd" clip-rule="evenodd" d="M820.507 133.197C820.812 133.477 820.833 133.951 820.553 134.257L813.678 141.757C813.54 141.908 813.346 141.995 813.141 142C812.937 142.004 812.739 141.925 812.595 141.78L809.47 138.655C809.177 138.362 809.177 137.888 809.47 137.595C809.763 137.302 810.237 137.302 810.53 137.595L813.101 140.166L819.447 133.243C819.727 132.938 820.201 132.917 820.507 133.197Z" fill="#22282F"/>
<rect x="0.5" y="109.5" width="970" height="56" stroke="#F0F3F4"/>
<rect width="969" height="45" transform="translate(1 165)" fill="#F8F6F4"/>
<path d="M18.088 193.5H20.088V189.804H22.248C24.808 189.804 26.536 188.412 26.536 186.044C26.536 183.692 24.808 182.3 22.248 182.3H18.088V193.5ZM20.088 188.044V184.06H22.184C23.688 184.06 24.536 184.668 24.536 186.044C24.536 187.436 23.688 188.044 22.184 188.044H20.088ZM29.8715 193.66C30.9755 193.66 31.8555 193.1 32.4795 192.428H32.5275C32.8315 193.308 33.5195 193.596 34.2235 193.596C34.5275 193.596 34.8315 193.564 35.2315 193.436V192.124L35.1835 192.092C35.0395 192.124 34.9435 192.14 34.8315 192.14C34.3995 192.14 34.1915 191.852 34.1915 191.34V188.06C34.1915 186.348 32.8475 185.34 30.9435 185.34C29.3755 185.34 27.9995 186.156 27.6955 187.852L27.7755 187.916L29.3595 187.996C29.5035 187.196 30.0635 186.796 30.8795 186.796C31.7915 186.796 32.4155 187.212 32.4155 188.076V188.508L30.0955 188.748C28.4955 188.908 27.3275 189.756 27.3275 191.276C27.3275 192.748 28.4475 193.66 29.8715 193.66ZM30.2075 192.172C29.5675 192.172 29.0715 191.836 29.0715 191.18C29.0715 190.604 29.4875 190.14 30.3355 190.028L32.4155 189.788V190.956C31.7755 191.692 31.1035 192.172 30.2075 192.172ZM36.6959 193.5H38.5199V188.428C39.0159 187.452 39.7999 186.94 40.6799 186.94C40.9359 186.94 41.0799 186.956 41.2079 186.988L41.2719 186.94L41.5119 185.468C41.3519 185.388 41.1119 185.34 40.8239 185.34C39.8319 185.34 39.0639 185.868 38.5199 186.492V185.5H36.6959V193.5ZM46.0171 193.66C46.5611 193.66 46.8971 193.612 47.3611 193.5V192.044L47.3131 192.012C47.0571 192.076 46.8651 192.108 46.5611 192.108C45.9531 192.108 45.6491 191.804 45.6491 191.276V187.068H47.4411V185.5H45.6491V183.74L43.9531 183.148H43.8091V185.5H42.3211V187.068H43.8091V191.436C43.8091 192.94 44.7051 193.66 46.0171 193.66ZM49.0553 193.5H50.8793V188.284C51.3753 187.548 52.1593 186.94 53.0233 186.94C53.9833 186.94 54.4953 187.484 54.4953 188.46V193.5H56.3193V187.996C56.3193 186.428 55.3593 185.34 53.6153 185.34C52.4473 185.34 51.4713 185.916 50.8793 186.54V185.5H49.0553V193.5ZM61.8893 193.66C63.8413 193.66 65.1533 192.668 65.6653 190.876L65.6173 190.796L64.0173 190.7C63.7293 191.548 63.0573 192.108 61.9213 192.108C60.6413 192.108 59.7453 191.308 59.6653 189.996H65.7933V189.436C65.7933 186.86 64.1613 185.34 61.8893 185.34C59.7613 185.34 57.8893 187.004 57.8893 189.5C57.8893 191.996 59.4893 193.66 61.8893 193.66ZM59.6973 188.668C59.9213 187.5 60.8013 186.828 61.8893 186.828C63.0413 186.828 63.9533 187.484 64.0653 188.668H59.6973ZM67.3365 193.5H69.1605V188.428C69.6565 187.452 70.4405 186.94 71.3205 186.94C71.5765 186.94 71.7205 186.956 71.8485 186.988L71.9125 186.94L72.1525 185.468C71.9925 185.388 71.7525 185.34 71.4645 185.34C70.4725 185.34 69.7045 185.868 69.1605 186.492V185.5H67.3365V193.5ZM76.2158 193.66C78.1198 193.66 79.3358 192.524 79.3358 191.036C79.3358 189.772 78.4718 189.132 76.8558 188.7C75.3838 188.3 74.7598 188.028 74.7598 187.484C74.7598 186.972 75.3358 186.732 75.9118 186.732C76.6958 186.732 77.2558 187.148 77.3998 187.948L78.9518 187.74L78.9838 187.66C78.7598 186.156 77.6398 185.34 75.9278 185.34C74.2638 185.34 73.1278 186.348 73.1278 187.564C73.1278 188.844 73.9758 189.532 75.5758 189.932C77.0638 190.3 77.6078 190.588 77.6078 191.196C77.6078 191.804 76.9838 192.156 76.2478 192.156C75.0638 192.156 74.5678 191.612 74.3758 190.796L72.8558 191.052L72.8238 191.148C73.1118 192.716 74.3118 193.66 76.2158 193.66ZM80.9303 193.5H82.7543V188.204C83.2983 187.436 84.1463 186.94 85.0103 186.94C85.9223 186.94 86.5783 187.452 86.5783 188.46V193.5H88.4023V188.044C88.4023 186.38 87.2983 185.34 85.5863 185.34C84.4023 185.34 83.3463 185.9 82.7543 186.508V181.82H80.9303V193.5ZM91.2634 184.46C91.8874 184.46 92.3994 183.948 92.3994 183.324C92.3994 182.7 91.8874 182.188 91.2634 182.188C90.6394 182.188 90.1274 182.7 90.1274 183.324C90.1274 183.948 90.6394 184.46 91.2634 184.46ZM90.3514 193.5H92.1754V185.5H90.3514V193.5ZM94.1959 196.7H96.0199V192.748C96.5959 193.308 97.4919 193.66 98.4679 193.66C100.5 193.66 102.292 192.188 102.292 189.5C102.292 186.812 100.452 185.34 98.5799 185.34C97.3639 185.34 96.5479 185.836 96.0199 186.38V185.5H94.1959V196.7ZM98.1639 192.092C96.9959 192.092 96.0199 191.228 96.0199 190.076V188.908C96.0199 187.756 96.9959 186.908 98.1639 186.908C99.4279 186.908 100.452 187.74 100.452 189.5C100.452 191.26 99.4279 192.092 98.1639 192.092ZM106.778 193.66C108.682 193.66 109.898 192.524 109.898 191.036C109.898 189.772 109.034 189.132 107.418 188.7C105.946 188.3 105.322 188.028 105.322 187.484C105.322 186.972 105.898 186.732 106.474 186.732C107.258 186.732 107.818 187.148 107.962 187.948L109.514 187.74L109.546 187.66C109.322 186.156 108.202 185.34 106.49 185.34C104.826 185.34 103.69 186.348 103.69 187.564C103.69 188.844 104.538 189.532 106.138 189.932C107.626 190.3 108.17 190.588 108.17 191.196C108.17 191.804 107.546 192.156 106.81 192.156C105.626 192.156 105.13 191.612 104.938 190.796L103.418 191.052L103.386 191.148C103.674 192.716 104.874 193.66 106.778 193.66Z" fill="#0B0E0F"/>
<rect x="0.5" y="209.5" width="970" height="56" fill="white"/>
<path d="M22.572 240.64C24.91 240.64 26.534 239.268 26.94 237.266H25.596C25.204 238.596 24.112 239.408 22.558 239.408C20.43 239.408 19.072 237.798 19.072 235.6C19.072 233.402 20.43 231.792 22.558 231.792C24.112 231.792 25.204 232.604 25.596 233.934H26.94C26.534 231.932 24.924 230.56 22.572 230.56C19.912 230.56 17.7 232.59 17.7 235.6C17.7 238.61 19.912 240.64 22.572 240.64ZM28.5607 240.5H29.7927V235.796C30.2547 234.928 30.9827 234.452 31.7667 234.452C32.0047 234.452 32.1027 234.466 32.2147 234.494L32.4107 233.472C32.2847 233.402 32.1027 233.36 31.8507 233.36C30.9687 233.36 30.2687 233.864 29.7927 234.41V233.5H28.5607V240.5ZM36.4115 240.64C38.1335 240.64 39.2535 239.66 39.6315 238.106H38.4835C38.2315 238.946 37.5175 239.52 36.4255 239.52C35.1655 239.52 34.2835 238.736 34.2415 237.392H39.7015V236.916C39.7015 234.662 38.2875 233.36 36.4115 233.36C34.5775 233.36 32.9955 234.816 32.9955 237C32.9955 239.184 34.2835 240.64 36.4115 240.64ZM34.2555 236.328C34.4515 235.152 35.3195 234.48 36.4115 234.48C37.5035 234.48 38.4415 235.096 38.5395 236.328H34.2555ZM42.9878 240.64C43.9678 240.64 44.8778 240.024 45.3538 239.492C45.5498 240.332 46.1238 240.584 46.7398 240.584C46.9638 240.584 47.1878 240.556 47.5238 240.444V239.52C47.3838 239.562 47.2718 239.576 47.1598 239.576C46.7398 239.576 46.5438 239.296 46.5438 238.848V235.572C46.5438 234.242 45.4798 233.36 43.8418 233.36C42.5818 233.36 41.2938 234.046 41.0698 235.614H42.2318C42.4278 234.816 43.0158 234.48 43.7578 234.48C44.6538 234.48 45.3118 234.872 45.3118 235.712V236.188L43.1278 236.412C41.8678 236.538 40.7618 237.238 40.7618 238.61C40.7618 239.856 41.6718 240.64 42.9878 240.64ZM43.1278 239.52C42.4838 239.52 41.9938 239.212 41.9938 238.554C41.9938 237.994 42.3858 237.504 43.2118 237.406L45.3118 237.168V238.428C44.6958 239.044 43.9818 239.52 43.1278 239.52ZM50.8503 240.64C51.3263 240.64 51.5923 240.598 51.9703 240.5V239.464C51.7183 239.506 51.5503 239.548 51.2283 239.548C50.6263 239.548 50.3603 239.254 50.3603 238.792V234.62H52.0403V233.5H50.3603V231.848L49.1283 231.4V233.5H47.7423V234.62H49.1283V238.876C49.1283 240.038 49.7863 240.64 50.8503 240.64ZM56.3588 240.64C58.0808 240.64 59.2008 239.66 59.5788 238.106H58.4308C58.1788 238.946 57.4648 239.52 56.3728 239.52C55.1128 239.52 54.2308 238.736 54.1888 237.392H59.6488V236.916C59.6488 234.662 58.2348 233.36 56.3588 233.36C54.5248 233.36 52.9428 234.816 52.9428 237C52.9428 239.184 54.2308 240.64 56.3588 240.64ZM54.2028 236.328C54.3988 235.152 55.2668 234.48 56.3588 234.48C57.4508 234.48 58.3888 235.096 58.4868 236.328H54.2028ZM64.0405 240.5H65.3845V237.112H67.4005C69.5845 237.112 71.0265 235.908 71.0265 233.906C71.0265 231.904 69.5845 230.7 67.4005 230.7H64.0405V240.5ZM65.3845 235.88V231.932H67.4285C68.8845 231.932 69.6825 232.548 69.6825 233.906C69.6825 235.264 68.8845 235.88 67.4285 235.88H65.3845ZM74.0093 240.64C74.9893 240.64 75.8993 240.024 76.3753 239.492C76.5713 240.332 77.1453 240.584 77.7613 240.584C77.9853 240.584 78.2093 240.556 78.5453 240.444V239.52C78.4053 239.562 78.2933 239.576 78.1813 239.576C77.7613 239.576 77.5653 239.296 77.5653 238.848V235.572C77.5653 234.242 76.5013 233.36 74.8633 233.36C73.6033 233.36 72.3153 234.046 72.0913 235.614H73.2533C73.4493 234.816 74.0373 234.48 74.7793 234.48C75.6753 234.48 76.3333 234.872 76.3333 235.712V236.188L74.1493 236.412C72.8893 236.538 71.7833 237.238 71.7833 238.61C71.7833 239.856 72.6933 240.64 74.0093 240.64ZM74.1493 239.52C73.5053 239.52 73.0153 239.212 73.0153 238.554C73.0153 237.994 73.4073 237.504 74.2333 237.406L76.3333 237.168V238.428C75.7173 239.044 75.0033 239.52 74.1493 239.52ZM79.8849 240.5H81.1169V235.796C81.5789 234.928 82.3069 234.452 83.0909 234.452C83.3289 234.452 83.4269 234.466 83.5389 234.494L83.7349 233.472C83.6089 233.402 83.4269 233.36 83.1749 233.36C82.2929 233.36 81.5929 233.864 81.1169 234.41V233.5H79.8849V240.5ZM87.5456 240.64C88.0216 240.64 88.2876 240.598 88.6656 240.5V239.464C88.4136 239.506 88.2456 239.548 87.9236 239.548C87.3216 239.548 87.0556 239.254 87.0556 238.792V234.62H88.7356V233.5H87.0556V231.848L85.8236 231.4V233.5H84.4376V234.62H85.8236V238.876C85.8236 240.038 86.4816 240.64 87.5456 240.64ZM90.1662 240.5H91.3982V235.796C91.9162 235.04 92.6442 234.452 93.4982 234.452C94.4222 234.452 94.9262 234.97 94.9262 235.894V240.5H96.1582V235.67C96.1582 234.256 95.3462 233.36 93.8482 233.36C92.8122 233.36 91.8882 233.892 91.3982 234.41V233.5H90.1662V240.5ZM100.997 240.64C102.719 240.64 103.839 239.66 104.217 238.106H103.069C102.817 238.946 102.103 239.52 101.011 239.52C99.7515 239.52 98.8695 238.736 98.8275 237.392H104.287V236.916C104.287 234.662 102.873 233.36 100.997 233.36C99.1635 233.36 97.5815 234.816 97.5815 237C97.5815 239.184 98.8695 240.64 100.997 240.64ZM98.8415 236.328C99.0375 235.152 99.9055 234.48 100.997 234.48C102.089 234.48 103.027 235.096 103.125 236.328H98.8415ZM105.684 240.5H106.916V235.796C107.378 234.928 108.106 234.452 108.89 234.452C109.128 234.452 109.226 234.466 109.338 234.494L109.534 233.472C109.408 233.402 109.226 233.36 108.974 233.36C108.092 233.36 107.392 233.864 106.916 234.41V233.5H105.684V240.5ZM113.014 240.64C114.61 240.64 115.66 239.66 115.66 238.372C115.66 237.28 114.862 236.748 113.392 236.356C112.132 236.02 111.558 235.74 111.558 235.222C111.558 234.662 112.202 234.424 112.748 234.424C113.518 234.424 114.064 234.816 114.162 235.572H115.38C115.254 234.13 114.246 233.36 112.748 233.36C111.348 233.36 110.382 234.228 110.382 235.25C110.382 236.342 111.054 236.916 112.44 237.266C113.812 237.616 114.456 237.896 114.456 238.526C114.456 239.17 113.784 239.52 113.042 239.52C111.922 239.52 111.474 239.03 111.292 238.316H110.13C110.27 239.772 111.348 240.64 113.014 240.64ZM117.113 240.5H118.345V235.712C118.863 234.984 119.703 234.452 120.529 234.452C121.439 234.452 122.041 234.97 122.041 235.894V240.5H123.273V235.67C123.273 234.256 122.377 233.36 120.879 233.36C119.801 233.36 118.835 233.892 118.345 234.41V230.28H117.113V240.5ZM125.686 232.436C126.148 232.436 126.526 232.058 126.526 231.596C126.526 231.134 126.148 230.756 125.686 230.756C125.224 230.756 124.846 231.134 124.846 231.596C124.846 232.058 125.224 232.436 125.686 232.436ZM125.07 240.5H126.302V233.5H125.07V240.5ZM128.147 243.3H129.379V239.758C129.911 240.318 130.737 240.64 131.633 240.64C133.467 240.64 134.811 239.24 134.811 237C134.811 234.76 133.327 233.36 131.605 233.36C130.527 233.36 129.785 233.836 129.379 234.27V233.5H128.147V243.3ZM131.409 239.52C130.303 239.52 129.379 238.652 129.379 237.658V236.314C129.379 235.32 130.303 234.48 131.409 234.48C132.585 234.48 133.579 235.236 133.579 237C133.579 238.764 132.585 239.52 131.409 239.52ZM138.703 240.64C140.299 240.64 141.349 239.66 141.349 238.372C141.349 237.28 140.551 236.748 139.081 236.356C137.821 236.02 137.247 235.74 137.247 235.222C137.247 234.662 137.891 234.424 138.437 234.424C139.207 234.424 139.753 234.816 139.851 235.572H141.069C140.943 234.13 139.935 233.36 138.437 233.36C137.037 233.36 136.071 234.228 136.071 235.25C136.071 236.342 136.743 236.916 138.129 237.266C139.501 237.616 140.145 237.896 140.145 238.526C140.145 239.17 139.473 239.52 138.731 239.52C137.611 239.52 137.163 239.03 136.981 238.316H135.819C135.959 239.772 137.037 240.64 138.703 240.64Z" fill="#0B0E0F"/>
<circle cx="267.5" cy="237.5" r="11" fill="#B4F481" stroke="black"/>
<path fill-rule="evenodd" clip-rule="evenodd" d="M273.007 233.197C273.312 233.477 273.333 233.951 273.053 234.257L266.178 241.757C266.04 241.908 265.846 241.995 265.641 242C265.437 242.004 265.239 241.925 265.095 241.78L261.97 238.655C261.677 238.362 261.677 237.888 261.97 237.595C262.263 237.302 262.737 237.302 263.03 237.595L265.601 240.166L271.947 233.243C272.227 232.938 272.701 232.917 273.007 233.197Z" fill="#22282F"/>
<circle cx="450" cy="237.5" r="11" fill="#B4F481" stroke="black"/>
<path fill-rule="evenodd" clip-rule="evenodd" d="M455.507 233.197C455.812 233.477 455.833 233.951 455.553 234.257L448.678 241.757C448.54 241.908 448.346 241.995 448.141 242C447.937 242.004 447.739 241.925 447.595 241.78L444.47 238.655C444.177 238.362 444.177 237.888 444.47 237.595C444.763 237.302 445.237 237.302 445.53 237.595L448.101 240.166L454.447 233.243C454.727 232.938 455.201 232.917 455.507 233.197Z" fill="#22282F"/>
<circle cx="632.5" cy="237.5" r="11" fill="#B4F481" stroke="black"/>
<path fill-rule="evenodd" clip-rule="evenodd" d="M638.007 233.197C638.312 233.477 638.333 233.951 638.053 234.257L631.178 241.757C631.04 241.908 630.846 241.995 630.641 242C630.437 242.004 630.239 241.925 630.095 241.78L626.97 238.655C626.677 238.362 626.677 237.888 626.97 237.595C627.263 237.302 627.737 237.302 628.03 237.595L630.601 240.166L636.947 233.243C637.227 232.938 637.701 232.917 638.007 233.197Z" fill="#22282F"/>
<circle cx="815" cy="237.5" r="11" fill="#B4F481" stroke="black"/>
<path fill-rule="evenodd" clip-rule="evenodd" d="M820.507 233.197C820.812 233.477 820.833 233.951 820.553 234.257L813.678 241.757C813.54 241.908 813.346 241.995 813.141 242C812.937 242.004 812.739 241.925 812.595 241.78L809.47 238.655C809.177 238.362 809.177 237.888 809.47 237.595C809.763 237.302 810.237 237.302 810.53 237.595L813.101 240.166L819.447 233.243C819.727 232.938 820.201 232.917 820.507 233.197Z" fill="#22282F"/>
<rect x="0.5" y="209.5" width="970" height="56" stroke="#F0F3F4"/>
<rect x="0.5" y="264.5" width="970" height="56" fill="white"/>
<path d="M17.98 295.5H19.324V292.112H21.34C23.524 292.112 24.966 290.908 24.966 288.906C24.966 286.904 23.524 285.7 21.34 285.7H17.98V295.5ZM19.324 290.88V286.932H21.368C22.824 286.932 23.622 287.548 23.622 288.906C23.622 290.264 22.824 290.88 21.368 290.88H19.324ZM27.9488 295.64C28.9288 295.64 29.8388 295.024 30.3148 294.492C30.5108 295.332 31.0848 295.584 31.7008 295.584C31.9248 295.584 32.1488 295.556 32.4848 295.444V294.52C32.3448 294.562 32.2328 294.576 32.1208 294.576C31.7008 294.576 31.5048 294.296 31.5048 293.848V290.572C31.5048 289.242 30.4408 288.36 28.8028 288.36C27.5428 288.36 26.2548 289.046 26.0308 290.614H27.1928C27.3888 289.816 27.9768 289.48 28.7188 289.48C29.6148 289.48 30.2728 289.872 30.2728 290.712V291.188L28.0888 291.412C26.8288 291.538 25.7228 292.238 25.7228 293.61C25.7228 294.856 26.6328 295.64 27.9488 295.64ZM28.0888 294.52C27.4448 294.52 26.9548 294.212 26.9548 293.554C26.9548 292.994 27.3468 292.504 28.1728 292.406L30.2728 292.168V293.428C29.6568 294.044 28.9428 294.52 28.0888 294.52ZM33.8244 295.5H35.0564V290.796C35.5184 289.928 36.2464 289.452 37.0304 289.452C37.2684 289.452 37.3664 289.466 37.4784 289.494L37.6744 288.472C37.5484 288.402 37.3664 288.36 37.1144 288.36C36.2324 288.36 35.5324 288.864 35.0564 289.41V288.5H33.8244V295.5ZM41.485 295.64C41.961 295.64 42.227 295.598 42.605 295.5V294.464C42.353 294.506 42.185 294.548 41.863 294.548C41.261 294.548 40.995 294.254 40.995 293.792V289.62H42.675V288.5H40.995V286.848L39.763 286.4V288.5H38.377V289.62H39.763V293.876C39.763 295.038 40.421 295.64 41.485 295.64ZM44.1056 295.5H45.3376V290.796C45.8556 290.04 46.5836 289.452 47.4376 289.452C48.3616 289.452 48.8656 289.97 48.8656 290.894V295.5H50.0976V290.67C50.0976 289.256 49.2856 288.36 47.7876 288.36C46.7516 288.36 45.8276 288.892 45.3376 289.41V288.5H44.1056V295.5ZM54.9369 295.64C56.6589 295.64 57.7789 294.66 58.1569 293.106H57.0089C56.7569 293.946 56.0429 294.52 54.9509 294.52C53.6909 294.52 52.8089 293.736 52.7669 292.392H58.2269V291.916C58.2269 289.662 56.8129 288.36 54.9369 288.36C53.1029 288.36 51.5209 289.816 51.5209 292C51.5209 294.184 52.8089 295.64 54.9369 295.64ZM52.7809 291.328C52.9769 290.152 53.8449 289.48 54.9369 289.48C56.0289 289.48 56.9669 290.096 57.0649 291.328H52.7809ZM59.6232 295.5H60.8552V290.796C61.3172 289.928 62.0452 289.452 62.8292 289.452C63.0672 289.452 63.1652 289.466 63.2772 289.494L63.4732 288.472C63.3472 288.402 63.1652 288.36 62.9132 288.36C62.0312 288.36 61.3312 288.864 60.8552 289.41V288.5H59.6232V295.5ZM66.9531 295.64C68.5491 295.64 69.5991 294.66 69.5991 293.372C69.5991 292.28 68.8011 291.748 67.3311 291.356C66.0711 291.02 65.4971 290.74 65.4971 290.222C65.4971 289.662 66.1411 289.424 66.6871 289.424C67.4571 289.424 68.0031 289.816 68.1011 290.572H69.3191C69.1931 289.13 68.1851 288.36 66.6871 288.36C65.2871 288.36 64.3211 289.228 64.3211 290.25C64.3211 291.342 64.9931 291.916 66.3791 292.266C67.7511 292.616 68.3951 292.896 68.3951 293.526C68.3951 294.17 67.7231 294.52 66.9811 294.52C65.8611 294.52 65.4131 294.03 65.2311 293.316H64.0691C64.2091 294.772 65.2871 295.64 66.9531 295.64ZM71.0529 295.5H72.2849V290.712C72.8029 289.984 73.6429 289.452 74.4689 289.452C75.3789 289.452 75.9809 289.97 75.9809 290.894V295.5H77.2129V290.67C77.2129 289.256 76.3169 288.36 74.8189 288.36C73.7409 288.36 72.7749 288.892 72.2849 289.41V285.28H71.0529V295.5ZM79.6259 287.436C80.0879 287.436 80.4659 287.058 80.4659 286.596C80.4659 286.134 80.0879 285.756 79.6259 285.756C79.1639 285.756 78.7859 286.134 78.7859 286.596C78.7859 287.058 79.1639 287.436 79.6259 287.436ZM79.0099 295.5H80.2419V288.5H79.0099V295.5ZM82.0861 298.3H83.3181V294.758C83.8501 295.318 84.6761 295.64 85.5721 295.64C87.4061 295.64 88.7501 294.24 88.7501 292C88.7501 289.76 87.2661 288.36 85.5441 288.36C84.4661 288.36 83.7241 288.836 83.3181 289.27V288.5H82.0861V298.3ZM85.3481 294.52C84.2421 294.52 83.3181 293.652 83.3181 292.658V291.314C83.3181 290.32 84.2421 289.48 85.3481 289.48C86.5241 289.48 87.5181 290.236 87.5181 292C87.5181 293.764 86.5241 294.52 85.3481 294.52ZM95.694 295.64C96.17 295.64 96.436 295.598 96.814 295.5V294.464C96.562 294.506 96.394 294.548 96.072 294.548C95.47 294.548 95.204 294.254 95.204 293.792V289.62H96.884V288.5H95.204V286.848L93.972 286.4V288.5H92.586V289.62H93.972V293.876C93.972 295.038 94.63 295.64 95.694 295.64ZM101.203 295.64C102.925 295.64 104.045 294.66 104.423 293.106H103.275C103.023 293.946 102.309 294.52 101.217 294.52C99.9566 294.52 99.0746 293.736 99.0326 292.392H104.493V291.916C104.493 289.662 103.079 288.36 101.203 288.36C99.3686 288.36 97.7866 289.816 97.7866 292C97.7866 294.184 99.0746 295.64 101.203 295.64ZM99.0466 291.328C99.2426 290.152 100.111 289.48 101.203 289.48C102.295 289.48 103.233 290.096 103.331 291.328H99.0466ZM107.779 295.64C108.759 295.64 109.669 295.024 110.145 294.492C110.341 295.332 110.915 295.584 111.531 295.584C111.755 295.584 111.979 295.556 112.315 295.444V294.52C112.175 294.562 112.063 294.576 111.951 294.576C111.531 294.576 111.335 294.296 111.335 293.848V290.572C111.335 289.242 110.271 288.36 108.633 288.36C107.373 288.36 106.085 289.046 105.861 290.614H107.023C107.219 289.816 107.807 289.48 108.549 289.48C109.445 289.48 110.103 289.872 110.103 290.712V291.188L107.919 291.412C106.659 291.538 105.553 292.238 105.553 293.61C105.553 294.856 106.463 295.64 107.779 295.64ZM107.919 294.52C107.275 294.52 106.785 294.212 106.785 293.554C106.785 292.994 107.177 292.504 108.003 292.406L110.103 292.168V293.428C109.487 294.044 108.773 294.52 107.919 294.52ZM113.654 295.5H114.886V290.614C115.348 289.97 115.992 289.452 116.664 289.452C117.462 289.452 117.784 289.928 117.784 290.67V295.5H119.016V290.446C119.478 289.802 120.08 289.452 120.78 289.452C121.55 289.452 121.914 289.9 121.914 290.614V295.5H123.146V290.25C123.146 289.158 122.516 288.36 121.088 288.36C120.22 288.36 119.45 288.738 118.764 289.368C118.414 288.696 117.91 288.36 117.014 288.36C116.146 288.36 115.432 288.738 114.886 289.326V288.5H113.654V295.5ZM127.342 295.64C128.938 295.64 129.988 294.66 129.988 293.372C129.988 292.28 129.19 291.748 127.72 291.356C126.46 291.02 125.886 290.74 125.886 290.222C125.886 289.662 126.53 289.424 127.076 289.424C127.846 289.424 128.392 289.816 128.49 290.572H129.708C129.582 289.13 128.574 288.36 127.076 288.36C125.676 288.36 124.71 289.228 124.71 290.25C124.71 291.342 125.382 291.916 126.768 292.266C128.14 292.616 128.784 292.896 128.784 293.526C128.784 294.17 128.112 294.52 127.37 294.52C126.25 294.52 125.802 294.03 125.62 293.316H124.458C124.598 294.772 125.676 295.64 127.342 295.64Z" fill="#0B0E0F"/>
<circle cx="267.5" cy="292.5" r="11" fill="#FFE7DA" stroke="#FF7E35"/>
<path d="M264.667 289.667L270.334 295.333" stroke="#FF7E35" stroke-width="1.5" stroke-linecap="round" stroke-linejoin="round"/>
<path d="M270.334 289.667L264.667 295.333" stroke="#FF7E35" stroke-width="1.5" stroke-linecap="round" stroke-linejoin="round"/>
<circle cx="450" cy="292.5" r="11" fill="#B4F481" stroke="black"/>
<path fill-rule="evenodd" clip-rule="evenodd" d="M455.507 288.197C455.812 288.477 455.833 288.951 455.553 289.257L448.678 296.757C448.54 296.908 448.346 296.995 448.141 297C447.937 297.004 447.739 296.925 447.595 296.78L444.47 293.655C444.177 293.362 444.177 292.888 444.47 292.595C444.763 292.302 445.237 292.302 445.53 292.595L448.101 295.166L454.447 288.243C454.727 287.938 455.201 287.917 455.507 288.197Z" fill="#22282F"/>
<circle cx="632.5" cy="292.5" r="11" fill="#B4F481" stroke="black"/>
<path fill-rule="evenodd" clip-rule="evenodd" d="M638.007 288.197C638.312 288.477 638.333 288.951 638.053 289.257L631.178 296.757C631.04 296.908 630.846 296.995 630.641 297C630.437 297.004 630.239 296.925 630.095 296.78L626.97 293.655C626.677 293.362 626.677 292.888 626.97 292.595C627.263 292.302 627.737 292.302 628.03 292.595L630.601 295.166L636.947 288.243C637.227 287.938 637.701 287.917 638.007 288.197Z" fill="#22282F"/>
<circle cx="815" cy="292.5" r="11" fill="#B4F481" stroke="black"/>
<path fill-rule="evenodd" clip-rule="evenodd" d="M820.507 288.197C820.812 288.477 820.833 288.951 820.553 289.257L813.678 296.757C813.54 296.908 813.346 296.995 813.141 297C812.937 297.004 812.739 296.925 812.595 296.78L809.47 293.655C809.177 293.362 809.177 292.888 809.47 292.595C809.763 292.302 810.237 292.302 810.53 292.595L813.101 295.166L819.447 288.243C819.727 287.938 820.201 287.917 820.507 288.197Z" fill="#22282F"/>
<rect x="0.5" y="264.5" width="970" height="56" stroke="#F0F3F4"/>
<rect x="0.5" y="319.5" width="970" height="56" fill="white"/>
<path d="M17.98 350H19.324V346.612H21.34C23.524 346.612 24.966 345.408 24.966 343.406C24.966 341.404 23.524 340.2 21.34 340.2H17.98V350ZM19.324 345.38V341.432H21.368C22.824 341.432 23.622 342.048 23.622 343.406C23.622 344.764 22.824 345.38 21.368 345.38H19.324ZM27.9488 350.14C28.9288 350.14 29.8388 349.524 30.3148 348.992C30.5108 349.832 31.0848 350.084 31.7008 350.084C31.9248 350.084 32.1488 350.056 32.4848 349.944V349.02C32.3448 349.062 32.2328 349.076 32.1208 349.076C31.7008 349.076 31.5048 348.796 31.5048 348.348V345.072C31.5048 343.742 30.4408 342.86 28.8028 342.86C27.5428 342.86 26.2548 343.546 26.0308 345.114H27.1928C27.3888 344.316 27.9768 343.98 28.7188 343.98C29.6148 343.98 30.2728 344.372 30.2728 345.212V345.688L28.0888 345.912C26.8288 346.038 25.7228 346.738 25.7228 348.11C25.7228 349.356 26.6328 350.14 27.9488 350.14ZM28.0888 349.02C27.4448 349.02 26.9548 348.712 26.9548 348.054C26.9548 347.494 27.3468 347.004 28.1728 346.906L30.2728 346.668V347.928C29.6568 348.544 28.9428 349.02 28.0888 349.02ZM33.8244 350H35.0564V345.296C35.5184 344.428 36.2464 343.952 37.0304 343.952C37.2684 343.952 37.3664 343.966 37.4784 343.994L37.6744 342.972C37.5484 342.902 37.3664 342.86 37.1144 342.86C36.2324 342.86 35.5324 343.364 35.0564 343.91V343H33.8244V350ZM41.485 350.14C41.961 350.14 42.227 350.098 42.605 350V348.964C42.353 349.006 42.185 349.048 41.863 349.048C41.261 349.048 40.995 348.754 40.995 348.292V344.12H42.675V343H40.995V341.348L39.763 340.9V343H38.377V344.12H39.763V348.376C39.763 349.538 40.421 350.14 41.485 350.14ZM44.1056 350H45.3376V345.296C45.8556 344.54 46.5836 343.952 47.4376 343.952C48.3616 343.952 48.8656 344.47 48.8656 345.394V350H50.0976V345.17C50.0976 343.756 49.2856 342.86 47.7876 342.86C46.7516 342.86 45.8276 343.392 45.3376 343.91V343H44.1056V350ZM54.9369 350.14C56.6589 350.14 57.7789 349.16 58.1569 347.606H57.0089C56.7569 348.446 56.0429 349.02 54.9509 349.02C53.6909 349.02 52.8089 348.236 52.7669 346.892H58.2269V346.416C58.2269 344.162 56.8129 342.86 54.9369 342.86C53.1029 342.86 51.5209 344.316 51.5209 346.5C51.5209 348.684 52.8089 350.14 54.9369 350.14ZM52.7809 345.828C52.9769 344.652 53.8449 343.98 54.9369 343.98C56.0289 343.98 56.9669 344.596 57.0649 345.828H52.7809ZM59.6232 350H60.8552V345.296C61.3172 344.428 62.0452 343.952 62.8292 343.952C63.0672 343.952 63.1652 343.966 63.2772 343.994L63.4732 342.972C63.3472 342.902 63.1652 342.86 62.9132 342.86C62.0312 342.86 61.3312 343.364 60.8552 343.91V343H59.6232V350ZM66.9531 350.14C68.5491 350.14 69.5991 349.16 69.5991 347.872C69.5991 346.78 68.8011 346.248 67.3311 345.856C66.0711 345.52 65.4971 345.24 65.4971 344.722C65.4971 344.162 66.1411 343.924 66.6871 343.924C67.4571 343.924 68.0031 344.316 68.1011 345.072H69.3191C69.1931 343.63 68.1851 342.86 66.6871 342.86C65.2871 342.86 64.3211 343.728 64.3211 344.75C64.3211 345.842 64.9931 346.416 66.3791 346.766C67.7511 347.116 68.3951 347.396 68.3951 348.026C68.3951 348.67 67.7231 349.02 66.9811 349.02C65.8611 349.02 65.4131 348.53 65.2311 347.816H64.0691C64.2091 349.272 65.2871 350.14 66.9531 350.14ZM71.0529 350H72.2849V345.212C72.8029 344.484 73.6429 343.952 74.4689 343.952C75.3789 343.952 75.9809 344.47 75.9809 345.394V350H77.2129V345.17C77.2129 343.756 76.3169 342.86 74.8189 342.86C73.7409 342.86 72.7749 343.392 72.2849 343.91V339.78H71.0529V350ZM79.6259 341.936C80.0879 341.936 80.4659 341.558 80.4659 341.096C80.4659 340.634 80.0879 340.256 79.6259 340.256C79.1639 340.256 78.7859 340.634 78.7859 341.096C78.7859 341.558 79.1639 341.936 79.6259 341.936ZM79.0099 350H80.2419V343H79.0099V350ZM82.0861 352.8H83.3181V349.258C83.8501 349.818 84.6761 350.14 85.5721 350.14C87.4061 350.14 88.7501 348.74 88.7501 346.5C88.7501 344.26 87.2661 342.86 85.5441 342.86C84.4661 342.86 83.7241 343.336 83.3181 343.77V343H82.0861V352.8ZM85.3481 349.02C84.2421 349.02 83.3181 348.152 83.3181 347.158V345.814C83.3181 344.82 84.2421 343.98 85.3481 343.98C86.5241 343.98 87.5181 344.736 87.5181 346.5C87.5181 348.264 86.5241 349.02 85.3481 349.02ZM90.0105 346.08H94.7285V344.96H90.0105V346.08ZM96.3459 350H97.5779V339.78H96.3459V350ZM102.474 350.14C104.196 350.14 105.316 349.16 105.694 347.606H104.546C104.294 348.446 103.58 349.02 102.488 349.02C101.228 349.02 100.346 348.236 100.304 346.892H105.764V346.416C105.764 344.162 104.35 342.86 102.474 342.86C100.64 342.86 99.058 344.316 99.058 346.5C99.058 348.684 100.346 350.14 102.474 350.14ZM100.318 345.828C100.514 344.652 101.382 343.98 102.474 343.98C103.566 343.98 104.504 344.596 104.602 345.828H100.318ZM108.919 350H110.235L112.951 343H111.649L109.843 347.746L109.577 348.908L109.311 347.746L107.505 343H106.203L108.919 350ZM116.898 350.14C118.62 350.14 119.74 349.16 120.118 347.606H118.97C118.718 348.446 118.004 349.02 116.912 349.02C115.652 349.02 114.77 348.236 114.728 346.892H120.188V346.416C120.188 344.162 118.774 342.86 116.898 342.86C115.064 342.86 113.482 344.316 113.482 346.5C113.482 348.684 114.77 350.14 116.898 350.14ZM114.742 345.828C114.938 344.652 115.806 343.98 116.898 343.98C117.99 343.98 118.928 344.596 119.026 345.828H114.742ZM121.584 350H122.816V339.78H121.584V350ZM130.736 350.14C132.528 350.14 133.788 349.16 134.04 347.466H132.878C132.654 348.432 131.926 349.02 130.75 349.02C129.434 349.02 128.468 348.082 128.468 346.5C128.468 344.918 129.434 343.98 130.75 343.98C131.926 343.98 132.654 344.568 132.878 345.534H134.04C133.788 343.84 132.528 342.86 130.736 342.86C128.734 342.86 127.236 344.316 127.236 346.5C127.236 348.684 128.734 350.14 130.736 350.14ZM138.763 350.14C140.905 350.14 142.361 348.586 142.361 346.5C142.361 344.414 140.905 342.86 138.763 342.86C136.621 342.86 135.165 344.414 135.165 346.5C135.165 348.586 136.621 350.14 138.763 350.14ZM138.763 349.02C137.433 349.02 136.397 348.152 136.397 346.5C136.397 344.848 137.433 343.98 138.763 343.98C140.093 343.98 141.129 344.848 141.129 346.5C141.129 348.152 140.093 349.02 138.763 349.02ZM143.842 350H145.074V345.296C145.592 344.54 146.32 343.952 147.174 343.952C148.098 343.952 148.602 344.47 148.602 345.394V350H149.834V345.17C149.834 343.756 149.022 342.86 147.524 342.86C146.488 342.86 145.564 343.392 145.074 343.91V343H143.842V350ZM152.129 350H153.361V344.12H154.929V343H153.361V341.6C153.361 341.026 153.697 340.732 154.173 340.732C154.509 340.732 154.803 340.83 154.971 340.886V339.78C154.789 339.71 154.481 339.64 154.089 339.64C153.025 339.64 152.129 340.242 152.129 341.67V343H150.925V344.12H152.129V350ZM156.899 341.936C157.361 341.936 157.739 341.558 157.739 341.096C157.739 340.634 157.361 340.256 156.899 340.256C156.437 340.256 156.059 340.634 156.059 341.096C156.059 341.558 156.437 341.936 156.899 341.936ZM156.283 350H157.515V343H156.283V350ZM162.44 352.94C164.498 352.94 165.66 351.75 165.66 349.958V343H164.428V343.77C164.022 343.336 163.28 342.86 162.202 342.86C160.48 342.86 158.996 344.19 158.996 346.43C158.996 348.67 160.34 350 162.174 350C163.154 350 163.812 349.706 164.428 349.076V349.888C164.428 350.896 163.966 351.82 162.398 351.82C161.404 351.82 160.97 351.372 160.83 350.77H159.486C159.654 352.044 160.634 352.94 162.44 352.94ZM162.398 348.88C161.222 348.88 160.228 348.194 160.228 346.43C160.228 344.666 161.222 343.98 162.398 343.98C163.504 343.98 164.428 344.82 164.428 345.996V346.892C164.428 348.012 163.63 348.88 162.398 348.88ZM169.762 350.14C170.798 350.14 171.722 349.608 172.212 349.09V350H173.444V343H172.212V347.704C171.694 348.46 170.966 349.048 170.112 349.048C169.188 349.048 168.684 348.53 168.684 347.606V343H167.452V347.83C167.452 349.244 168.264 350.14 169.762 350.14ZM175.287 350H176.519V345.296C176.981 344.428 177.709 343.952 178.493 343.952C178.731 343.952 178.829 343.966 178.941 343.994L179.137 342.972C179.011 342.902 178.829 342.86 178.577 342.86C177.695 342.86 176.995 343.364 176.519 343.91V343H175.287V350ZM181.839 350.14C182.819 350.14 183.729 349.524 184.205 348.992C184.401 349.832 184.975 350.084 185.591 350.084C185.815 350.084 186.039 350.056 186.375 349.944V349.02C186.235 349.062 186.123 349.076 186.011 349.076C185.591 349.076 185.395 348.796 185.395 348.348V345.072C185.395 343.742 184.331 342.86 182.693 342.86C181.433 342.86 180.145 343.546 179.921 345.114H181.083C181.279 344.316 181.867 343.98 182.609 343.98C183.505 343.98 184.163 344.372 184.163 345.212V345.688L181.979 345.912C180.719 346.038 179.613 346.738 179.613 348.11C179.613 349.356 180.523 350.14 181.839 350.14ZM181.979 349.02C181.335 349.02 180.845 348.712 180.845 348.054C180.845 347.494 181.237 347.004 182.063 346.906L184.163 346.668V347.928C183.547 348.544 182.833 349.02 181.979 349.02ZM189.702 350.14C190.178 350.14 190.444 350.098 190.822 350V348.964C190.57 349.006 190.402 349.048 190.08 349.048C189.478 349.048 189.212 348.754 189.212 348.292V344.12H190.892V343H189.212V341.348L187.98 340.9V343H186.594V344.12H187.98V348.376C187.98 349.538 188.638 350.14 189.702 350.14ZM192.938 341.936C193.4 341.936 193.778 341.558 193.778 341.096C193.778 340.634 193.4 340.256 192.938 340.256C192.476 340.256 192.098 340.634 192.098 341.096C192.098 341.558 192.476 341.936 192.938 341.936ZM192.322 350H193.554V343H192.322V350ZM198.633 350.14C200.775 350.14 202.231 348.586 202.231 346.5C202.231 344.414 200.775 342.86 198.633 342.86C196.491 342.86 195.035 344.414 195.035 346.5C195.035 348.586 196.491 350.14 198.633 350.14ZM198.633 349.02C197.303 349.02 196.267 348.152 196.267 346.5C196.267 344.848 197.303 343.98 198.633 343.98C199.963 343.98 200.999 344.848 200.999 346.5C200.999 348.152 199.963 349.02 198.633 349.02ZM203.711 350H204.943V345.296C205.461 344.54 206.189 343.952 207.043 343.952C207.967 343.952 208.471 344.47 208.471 345.394V350H209.703V345.17C209.703 343.756 208.891 342.86 207.393 342.86C206.357 342.86 205.433 343.392 204.943 343.91V343H203.711V350ZM213.898 350.14C215.494 350.14 216.544 349.16 216.544 347.872C216.544 346.78 215.746 346.248 214.276 345.856C213.016 345.52 212.442 345.24 212.442 344.722C212.442 344.162 213.086 343.924 213.632 343.924C214.402 343.924 214.948 344.316 215.046 345.072H216.264C216.138 343.63 215.13 342.86 213.632 342.86C212.232 342.86 211.266 343.728 211.266 344.75C211.266 345.842 211.938 346.416 213.324 346.766C214.696 347.116 215.34 347.396 215.34 348.026C215.34 348.67 214.668 349.02 213.926 349.02C212.806 349.02 212.358 348.53 212.176 347.816H211.014C211.154 349.272 212.232 350.14 213.898 350.14Z" fill="#0B0E0F"/>
<circle cx="267.5" cy="347.5" r="11" fill="#FFE7DA" stroke="#FF7E35"/>
<path d="M264.667 344.667L270.334 350.333" stroke="#FF7E35" stroke-width="1.5" stroke-linecap="round" stroke-linejoin="round"/>
<path d="M270.334 344.667L264.667 350.333" stroke="#FF7E35" stroke-width="1.5" stroke-linecap="round" stroke-linejoin="round"/>
<circle cx="450" cy="347.5" r="11" fill="#B4F481" stroke="black"/>
<path fill-rule="evenodd" clip-rule="evenodd" d="M455.507 343.197C455.812 343.477 455.833 343.951 455.553 344.257L448.678 351.757C448.54 351.908 448.346 351.995 448.141 352C447.937 352.004 447.739 351.925 447.595 351.78L444.47 348.655C444.177 348.362 444.177 347.888 444.47 347.595C444.763 347.302 445.237 347.302 445.53 347.595L448.101 350.166L454.447 343.243C454.727 342.938 455.201 342.917 455.507 343.197Z" fill="#22282F"/>
<circle cx="632.5" cy="347.5" r="11" fill="#B4F481" stroke="black"/>
<path fill-rule="evenodd" clip-rule="evenodd" d="M638.007 343.197C638.312 343.477 638.333 343.951 638.053 344.257L631.178 351.757C631.04 351.908 630.846 351.995 630.641 352C630.437 352.004 630.239 351.925 630.095 351.78L626.97 348.655C626.677 348.362 626.677 347.888 626.97 347.595C627.263 347.302 627.737 347.302 628.03 347.595L630.601 350.166L636.947 343.243C637.227 342.938 637.701 342.917 638.007 343.197Z" fill="#22282F"/>
<circle cx="815" cy="347.5" r="11" fill="#B4F481" stroke="black"/>
<path fill-rule="evenodd" clip-rule="evenodd" d="M820.507 343.197C820.812 343.477 820.833 343.951 820.553 344.257L813.678 351.757C813.54 351.908 813.346 351.995 813.141 352C812.937 352.004 812.739 351.925 812.595 351.78L809.47 348.655C809.177 348.362 809.177 347.888 809.47 347.595C809.763 347.302 810.237 347.302 810.53 347.595L813.101 350.166L819.447 343.243C819.727 342.938 820.201 342.917 820.507 343.197Z" fill="#22282F"/>
<rect x="0.5" y="319.5" width="970" height="56" stroke="#F0F3F4"/>
<rect width="969" height="45" transform="translate(1 375)" fill="#F8F6F4"/>
<path d="M18.088 403.5H20.088V399.804H22.248C24.808 399.804 26.536 398.412 26.536 396.044C26.536 393.692 24.808 392.3 22.248 392.3H18.088V403.5ZM20.088 398.044V394.06H22.184C23.688 394.06 24.536 394.668 24.536 396.044C24.536 397.436 23.688 398.044 22.184 398.044H20.088ZM29.8715 403.66C30.9755 403.66 31.8555 403.1 32.4795 402.428H32.5275C32.8315 403.308 33.5195 403.596 34.2235 403.596C34.5275 403.596 34.8315 403.564 35.2315 403.436V402.124L35.1835 402.092C35.0395 402.124 34.9435 402.14 34.8315 402.14C34.3995 402.14 34.1915 401.852 34.1915 401.34V398.06C34.1915 396.348 32.8475 395.34 30.9435 395.34C29.3755 395.34 27.9995 396.156 27.6955 397.852L27.7755 397.916L29.3595 397.996C29.5035 397.196 30.0635 396.796 30.8795 396.796C31.7915 396.796 32.4155 397.212 32.4155 398.076V398.508L30.0955 398.748C28.4955 398.908 27.3275 399.756 27.3275 401.276C27.3275 402.748 28.4475 403.66 29.8715 403.66ZM30.2075 402.172C29.5675 402.172 29.0715 401.836 29.0715 401.18C29.0715 400.604 29.4875 400.14 30.3355 400.028L32.4155 399.788V400.956C31.7755 401.692 31.1035 402.172 30.2075 402.172ZM36.6959 403.5H38.5199V398.428C39.0159 397.452 39.7999 396.94 40.6799 396.94C40.9359 396.94 41.0799 396.956 41.2079 396.988L41.2719 396.94L41.5119 395.468C41.3519 395.388 41.1119 395.34 40.8239 395.34C39.8319 395.34 39.0639 395.868 38.5199 396.492V395.5H36.6959V403.5ZM46.0171 403.66C46.5611 403.66 46.8971 403.612 47.3611 403.5V402.044L47.3131 402.012C47.0571 402.076 46.8651 402.108 46.5611 402.108C45.9531 402.108 45.6491 401.804 45.6491 401.276V397.068H47.4411V395.5H45.6491V393.74L43.9531 393.148H43.8091V395.5H42.3211V397.068H43.8091V401.436C43.8091 402.94 44.7051 403.66 46.0171 403.66ZM49.0553 403.5H50.8793V398.284C51.3753 397.548 52.1593 396.94 53.0233 396.94C53.9833 396.94 54.4953 397.484 54.4953 398.46V403.5H56.3193V397.996C56.3193 396.428 55.3593 395.34 53.6153 395.34C52.4473 395.34 51.4713 395.916 50.8793 396.54V395.5H49.0553V403.5ZM61.8893 403.66C63.8413 403.66 65.1533 402.668 65.6653 400.876L65.6173 400.796L64.0173 400.7C63.7293 401.548 63.0573 402.108 61.9213 402.108C60.6413 402.108 59.7453 401.308 59.6653 399.996H65.7933V399.436C65.7933 396.86 64.1613 395.34 61.8893 395.34C59.7613 395.34 57.8893 397.004 57.8893 399.5C57.8893 401.996 59.4893 403.66 61.8893 403.66ZM59.6973 398.668C59.9213 397.5 60.8013 396.828 61.8893 396.828C63.0413 396.828 63.9533 397.484 64.0653 398.668H59.6973ZM67.3365 403.5H69.1605V398.428C69.6565 397.452 70.4405 396.94 71.3205 396.94C71.5765 396.94 71.7205 396.956 71.8485 396.988L71.9125 396.94L72.1525 395.468C71.9925 395.388 71.7525 395.34 71.4645 395.34C70.4725 395.34 69.7045 395.868 69.1605 396.492V395.5H67.3365V403.5ZM76.2158 403.66C78.1198 403.66 79.3358 402.524 79.3358 401.036C79.3358 399.772 78.4718 399.132 76.8558 398.7C75.3838 398.3 74.7598 398.028 74.7598 397.484C74.7598 396.972 75.3358 396.732 75.9118 396.732C76.6958 396.732 77.2558 397.148 77.3998 397.948L78.9518 397.74L78.9838 397.66C78.7598 396.156 77.6398 395.34 75.9278 395.34C74.2638 395.34 73.1278 396.348 73.1278 397.564C73.1278 398.844 73.9758 399.532 75.5758 399.932C77.0638 400.3 77.6078 400.588 77.6078 401.196C77.6078 401.804 76.9838 402.156 76.2478 402.156C75.0638 402.156 74.5678 401.612 74.3758 400.796L72.8558 401.052L72.8238 401.148C73.1118 402.716 74.3118 403.66 76.2158 403.66ZM80.9303 403.5H82.7543V398.204C83.2983 397.436 84.1463 396.94 85.0103 396.94C85.9223 396.94 86.5783 397.452 86.5783 398.46V403.5H88.4023V398.044C88.4023 396.38 87.2983 395.34 85.5863 395.34C84.4023 395.34 83.3463 395.9 82.7543 396.508V391.82H80.9303V403.5ZM91.2634 394.46C91.8874 394.46 92.3994 393.948 92.3994 393.324C92.3994 392.7 91.8874 392.188 91.2634 392.188C90.6394 392.188 90.1274 392.7 90.1274 393.324C90.1274 393.948 90.6394 394.46 91.2634 394.46ZM90.3514 403.5H92.1754V395.5H90.3514V403.5ZM94.1959 406.7H96.0199V402.748C96.5959 403.308 97.4919 403.66 98.4679 403.66C100.5 403.66 102.292 402.188 102.292 399.5C102.292 396.812 100.452 395.34 98.5799 395.34C97.3639 395.34 96.5479 395.836 96.0199 396.38V395.5H94.1959V406.7ZM98.1639 402.092C96.9959 402.092 96.0199 401.228 96.0199 400.076V398.908C96.0199 397.756 96.9959 396.908 98.1639 396.908C99.4279 396.908 100.452 397.74 100.452 399.5C100.452 401.26 99.4279 402.092 98.1639 402.092ZM109.738 403.5H111.866L114.17 395.004L116.474 403.5H118.602L121.85 392.3H119.722L117.754 399.724L117.514 401.164H117.466L117.226 399.724L115.162 392.3H113.178L111.098 399.724L110.874 401.164H110.826L110.57 399.724L108.618 392.3H106.49L109.738 403.5ZM126.348 403.66C128.844 403.66 130.572 401.884 130.572 399.5C130.572 397.116 128.844 395.34 126.348 395.34C123.836 395.34 122.108 397.116 122.108 399.5C122.108 401.884 123.836 403.66 126.348 403.66ZM126.348 402.044C124.988 402.044 123.932 401.132 123.932 399.5C123.932 397.868 124.988 396.956 126.348 396.956C127.708 396.956 128.748 397.868 128.748 399.5C128.748 401.132 127.708 402.044 126.348 402.044ZM132.212 403.5H134.036V398.428C134.532 397.452 135.316 396.94 136.196 396.94C136.452 396.94 136.596 396.956 136.724 396.988L136.788 396.94L137.028 395.468C136.868 395.388 136.628 395.34 136.34 395.34C135.348 395.34 134.58 395.868 134.036 396.492V395.5H132.212V403.5ZM138.493 403.5H140.317V400.028H140.381L143.197 403.5H145.421L141.853 399.052L145.165 395.5H142.925L140.381 398.252H140.317V391.82H138.493V403.5ZM147.495 403.5H149.335V397.068H151.047V395.5H149.335V394.108C149.335 393.5 149.687 393.212 150.215 393.212C150.535 393.212 150.839 393.292 151.031 393.356L151.079 393.324V391.82C150.807 391.74 150.455 391.66 150.007 391.66C148.679 391.66 147.495 392.38 147.495 394.092V395.5H146.135V397.068H147.495V403.5ZM152.54 403.5H154.364V391.82H152.54V403.5ZM160.239 403.66C162.735 403.66 164.463 401.884 164.463 399.5C164.463 397.116 162.735 395.34 160.239 395.34C157.727 395.34 155.999 397.116 155.999 399.5C155.999 401.884 157.727 403.66 160.239 403.66ZM160.239 402.044C158.879 402.044 157.823 401.132 157.823 399.5C157.823 397.868 158.879 396.956 160.239 396.956C161.599 396.956 162.639 397.868 162.639 399.5C162.639 401.132 161.599 402.044 160.239 402.044ZM167.579 403.5H169.547L171.099 397.708L172.667 403.5H174.635L177.019 395.5H175.131L173.819 400.124L173.611 401.468H173.579L173.339 400.124L171.979 395.5H170.235L168.843 400.124L168.619 401.468H168.587L168.379 400.124L167.083 395.5H165.179L167.579 403.5ZM180.997 403.66C182.901 403.66 184.117 402.524 184.117 401.036C184.117 399.772 183.253 399.132 181.637 398.7C180.165 398.3 179.541 398.028 179.541 397.484C179.541 396.972 180.117 396.732 180.693 396.732C181.477 396.732 182.037 397.148 182.181 397.948L183.733 397.74L183.765 397.66C183.541 396.156 182.421 395.34 180.709 395.34C179.045 395.34 177.909 396.348 177.909 397.564C177.909 398.844 178.757 399.532 180.357 399.932C181.845 400.3 182.389 400.588 182.389 401.196C182.389 401.804 181.765 402.156 181.029 402.156C179.845 402.156 179.349 401.612 179.157 400.796L177.637 401.052L177.605 401.148C177.893 402.716 179.093 403.66 180.997 403.66Z" fill="#0B0E0F"/>
<rect x="0.5" y="419.5" width="970" height="56" fill="white"/>
<path d="M17.98 451.5H19.324V448.112H21.34C23.524 448.112 24.966 446.908 24.966 444.906C24.966 442.904 23.524 441.7 21.34 441.7H17.98V451.5ZM19.324 446.88V442.932H21.368C22.824 442.932 23.622 443.548 23.622 444.906C23.622 446.264 22.824 446.88 21.368 446.88H19.324ZM27.9488 451.64C28.9288 451.64 29.8388 451.024 30.3148 450.492C30.5108 451.332 31.0848 451.584 31.7008 451.584C31.9248 451.584 32.1488 451.556 32.4848 451.444V450.52C32.3448 450.562 32.2328 450.576 32.1208 450.576C31.7008 450.576 31.5048 450.296 31.5048 449.848V446.572C31.5048 445.242 30.4408 444.36 28.8028 444.36C27.5428 444.36 26.2548 445.046 26.0308 446.614H27.1928C27.3888 445.816 27.9768 445.48 28.7188 445.48C29.6148 445.48 30.2728 445.872 30.2728 446.712V447.188L28.0888 447.412C26.8288 447.538 25.7228 448.238 25.7228 449.61C25.7228 450.856 26.6328 451.64 27.9488 451.64ZM28.0888 450.52C27.4448 450.52 26.9548 450.212 26.9548 449.554C26.9548 448.994 27.3468 448.504 28.1728 448.406L30.2728 448.168V449.428C29.6568 450.044 28.9428 450.52 28.0888 450.52ZM33.8244 451.5H35.0564V446.796C35.5184 445.928 36.2464 445.452 37.0304 445.452C37.2684 445.452 37.3664 445.466 37.4784 445.494L37.6744 444.472C37.5484 444.402 37.3664 444.36 37.1144 444.36C36.2324 444.36 35.5324 444.864 35.0564 445.41V444.5H33.8244V451.5ZM41.485 451.64C41.961 451.64 42.227 451.598 42.605 451.5V450.464C42.353 450.506 42.185 450.548 41.863 450.548C41.261 450.548 40.995 450.254 40.995 449.792V445.62H42.675V444.5H40.995V442.848L39.763 442.4V444.5H38.377V445.62H39.763V449.876C39.763 451.038 40.421 451.64 41.485 451.64ZM44.1056 451.5H45.3376V446.796C45.8556 446.04 46.5836 445.452 47.4376 445.452C48.3616 445.452 48.8656 445.97 48.8656 446.894V451.5H50.0976V446.67C50.0976 445.256 49.2856 444.36 47.7876 444.36C46.7516 444.36 45.8276 444.892 45.3376 445.41V444.5H44.1056V451.5ZM54.9369 451.64C56.6589 451.64 57.7789 450.66 58.1569 449.106H57.0089C56.7569 449.946 56.0429 450.52 54.9509 450.52C53.6909 450.52 52.8089 449.736 52.7669 448.392H58.2269V447.916C58.2269 445.662 56.8129 444.36 54.9369 444.36C53.1029 444.36 51.5209 445.816 51.5209 448C51.5209 450.184 52.8089 451.64 54.9369 451.64ZM52.7809 447.328C52.9769 446.152 53.8449 445.48 54.9369 445.48C56.0289 445.48 56.9669 446.096 57.0649 447.328H52.7809ZM59.6232 451.5H60.8552V446.796C61.3172 445.928 62.0452 445.452 62.8292 445.452C63.0672 445.452 63.1652 445.466 63.2772 445.494L63.4732 444.472C63.3472 444.402 63.1652 444.36 62.9132 444.36C62.0312 444.36 61.3312 444.864 60.8552 445.41V444.5H59.6232V451.5ZM69.1873 451.5H70.5593L72.0853 445.928L73.6253 451.5H74.9973L77.0973 444.5H75.7953L74.4793 449.022L74.2833 450.268L74.0453 449.022L72.7153 444.5H71.4693L70.1253 449.022L69.9013 450.268L69.7053 449.022L68.3893 444.5H67.0873L69.1873 451.5ZM81.3689 451.64C83.5109 451.64 84.9669 450.086 84.9669 448C84.9669 445.914 83.5109 444.36 81.3689 444.36C79.2269 444.36 77.7709 445.914 77.7709 448C77.7709 450.086 79.2269 451.64 81.3689 451.64ZM81.3689 450.52C80.0389 450.52 79.0029 449.652 79.0029 448C79.0029 446.348 80.0389 445.48 81.3689 445.48C82.6989 445.48 83.7349 446.348 83.7349 448C83.7349 449.652 82.6989 450.52 81.3689 450.52ZM86.4474 451.5H87.6794V446.796C88.1414 445.928 88.8694 445.452 89.6534 445.452C89.8914 445.452 89.9894 445.466 90.1014 445.494L90.2974 444.472C90.1714 444.402 89.9894 444.36 89.7374 444.36C88.8554 444.36 88.1554 444.864 87.6794 445.41V444.5H86.4474V451.5ZM91.5881 451.5H92.8201V448.364L95.6201 451.5H97.1881L93.7721 447.65L96.8941 444.5H95.2981L92.8201 447.02V441.28H91.5881V451.5ZM99.0687 451.5H100.301V445.62H101.869V444.5H100.301V443.1C100.301 442.526 100.637 442.232 101.113 442.232C101.449 442.232 101.743 442.33 101.911 442.386V441.28C101.729 441.21 101.421 441.14 101.029 441.14C99.9647 441.14 99.0687 441.742 99.0687 443.17V444.5H97.8647V445.62H99.0687V451.5ZM103.223 451.5H104.455V441.28H103.223V451.5ZM109.533 451.64C111.675 451.64 113.131 450.086 113.131 448C113.131 445.914 111.675 444.36 109.533 444.36C107.391 444.36 105.935 445.914 105.935 448C105.935 450.086 107.391 451.64 109.533 451.64ZM109.533 450.52C108.203 450.52 107.167 449.652 107.167 448C107.167 446.348 108.203 445.48 109.533 445.48C110.863 445.48 111.899 446.348 111.899 448C111.899 449.652 110.863 450.52 109.533 450.52ZM115.904 451.5H117.276L118.802 445.928L120.342 451.5H121.714L123.814 444.5H122.512L121.196 449.022L121 450.268L120.762 449.022L119.432 444.5H118.186L116.842 449.022L116.618 450.268L116.422 449.022L115.106 444.5H113.804L115.904 451.5ZM130.391 451.64C131.987 451.64 133.037 450.66 133.037 449.372C133.037 448.28 132.239 447.748 130.769 447.356C129.509 447.02 128.935 446.74 128.935 446.222C128.935 445.662 129.579 445.424 130.125 445.424C130.895 445.424 131.441 445.816 131.539 446.572H132.757C132.631 445.13 131.623 444.36 130.125 444.36C128.725 444.36 127.759 445.228 127.759 446.25C127.759 447.342 128.431 447.916 129.817 448.266C131.189 448.616 131.833 448.896 131.833 449.526C131.833 450.17 131.161 450.52 130.419 450.52C129.299 450.52 128.851 450.03 128.669 449.316H127.507C127.647 450.772 128.725 451.64 130.391 451.64ZM136.792 451.64C137.268 451.64 137.534 451.598 137.912 451.5V450.464C137.66 450.506 137.492 450.548 137.17 450.548C136.568 450.548 136.302 450.254 136.302 449.792V445.62H137.982V444.5H136.302V442.848L135.07 442.4V444.5H133.684V445.62H135.07V449.876C135.07 451.038 135.728 451.64 136.792 451.64ZM141.666 451.64C142.702 451.64 143.626 451.108 144.116 450.59V451.5H145.348V444.5H144.116V449.204C143.598 449.96 142.87 450.548 142.016 450.548C141.092 450.548 140.588 450.03 140.588 449.106V444.5H139.356V449.33C139.356 450.744 140.168 451.64 141.666 451.64ZM150.034 451.64C151.112 451.64 151.854 451.164 152.26 450.73V451.5H153.492V441.28H152.26V445.242C151.728 444.682 150.902 444.36 150.006 444.36C148.172 444.36 146.828 445.76 146.828 448C146.828 450.24 148.312 451.64 150.034 451.64ZM150.23 450.52C149.054 450.52 148.06 449.764 148.06 448C148.06 446.236 149.054 445.48 150.23 445.48C151.336 445.48 152.26 446.348 152.26 447.342V448.686C152.26 449.68 151.336 450.52 150.23 450.52ZM155.956 443.436C156.418 443.436 156.796 443.058 156.796 442.596C156.796 442.134 156.418 441.756 155.956 441.756C155.494 441.756 155.116 442.134 155.116 442.596C155.116 443.058 155.494 443.436 155.956 443.436ZM155.34 451.5H156.572V444.5H155.34V451.5ZM161.65 451.64C163.792 451.64 165.248 450.086 165.248 448C165.248 445.914 163.792 444.36 161.65 444.36C159.508 444.36 158.052 445.914 158.052 448C158.052 450.086 159.508 451.64 161.65 451.64ZM161.65 450.52C160.32 450.52 159.284 449.652 159.284 448C159.284 446.348 160.32 445.48 161.65 445.48C162.98 445.48 164.016 446.348 164.016 448C164.016 449.652 162.98 450.52 161.65 450.52Z" fill="#0B0E0F"/>
<circle cx="267.5" cy="447.5" r="11" fill="#FFE7DA" stroke="#FF7E35"/>
<path d="M264.667 444.667L270.334 450.333" stroke="#FF7E35" stroke-width="1.5" stroke-linecap="round" stroke-linejoin="round"/>
<path d="M270.334 444.667L264.667 450.333" stroke="#FF7E35" stroke-width="1.5" stroke-linecap="round" stroke-linejoin="round"/>
<circle cx="450" cy="447.5" r="11" fill="#B4F481" stroke="black"/>
<path fill-rule="evenodd" clip-rule="evenodd" d="M455.507 443.197C455.812 443.477 455.833 443.951 455.553 444.257L448.678 451.757C448.54 451.908 448.346 451.995 448.141 452C447.937 452.004 447.739 451.925 447.595 451.78L444.47 448.655C444.177 448.362 444.177 447.888 444.47 447.595C444.763 447.302 445.237 447.302 445.53 447.595L448.101 450.166L454.447 443.243C454.727 442.938 455.201 442.917 455.507 443.197Z" fill="#22282F"/>
<circle cx="632.5" cy="447.5" r="11" fill="#B4F481" stroke="black"/>
<path fill-rule="evenodd" clip-rule="evenodd" d="M638.007 443.197C638.312 443.477 638.333 443.951 638.053 444.257L631.178 451.757C631.04 451.908 630.846 451.995 630.641 452C630.437 452.004 630.239 451.925 630.095 451.78L626.97 448.655C626.677 448.362 626.677 447.888 626.97 447.595C627.263 447.302 627.737 447.302 628.03 447.595L630.601 450.166L636.947 443.243C637.227 442.938 637.701 442.917 638.007 443.197Z" fill="#22282F"/>
<circle cx="815" cy="447.5" r="11" fill="#B4F481" stroke="black"/>
<path fill-rule="evenodd" clip-rule="evenodd" d="M820.507 443.197C820.812 443.477 820.833 443.951 820.553 444.257L813.678 451.757C813.54 451.908 813.346 451.995 813.141 452C812.937 452.004 812.739 451.925 812.595 451.78L809.47 448.655C809.177 448.362 809.177 447.888 809.47 447.595C809.763 447.302 810.237 447.302 810.53 447.595L813.101 450.166L819.447 443.243C819.727 442.938 820.201 442.917 820.507 443.197Z" fill="#22282F"/>
<rect x="0.5" y="419.5" width="970" height="56" stroke="#F0F3F4"/>
<rect x="0.5" y="474.5" width="970" height="56" fill="white"/>
<path d="M17.98 506.5H19.324V503.112H21.34C23.524 503.112 24.966 501.908 24.966 499.906C24.966 497.904 23.524 496.7 21.34 496.7H17.98V506.5ZM19.324 501.88V497.932H21.368C22.824 497.932 23.622 498.548 23.622 499.906C23.622 501.264 22.824 501.88 21.368 501.88H19.324ZM27.9488 506.64C28.9288 506.64 29.8388 506.024 30.3148 505.492C30.5108 506.332 31.0848 506.584 31.7008 506.584C31.9248 506.584 32.1488 506.556 32.4848 506.444V505.52C32.3448 505.562 32.2328 505.576 32.1208 505.576C31.7008 505.576 31.5048 505.296 31.5048 504.848V501.572C31.5048 500.242 30.4408 499.36 28.8028 499.36C27.5428 499.36 26.2548 500.046 26.0308 501.614H27.1928C27.3888 500.816 27.9768 500.48 28.7188 500.48C29.6148 500.48 30.2728 500.872 30.2728 501.712V502.188L28.0888 502.412C26.8288 502.538 25.7228 503.238 25.7228 504.61C25.7228 505.856 26.6328 506.64 27.9488 506.64ZM28.0888 505.52C27.4448 505.52 26.9548 505.212 26.9548 504.554C26.9548 503.994 27.3468 503.504 28.1728 503.406L30.2728 503.168V504.428C29.6568 505.044 28.9428 505.52 28.0888 505.52ZM33.8244 506.5H35.0564V501.796C35.5184 500.928 36.2464 500.452 37.0304 500.452C37.2684 500.452 37.3664 500.466 37.4784 500.494L37.6744 499.472C37.5484 499.402 37.3664 499.36 37.1144 499.36C36.2324 499.36 35.5324 499.864 35.0564 500.41V499.5H33.8244V506.5ZM41.485 506.64C41.961 506.64 42.227 506.598 42.605 506.5V505.464C42.353 505.506 42.185 505.548 41.863 505.548C41.261 505.548 40.995 505.254 40.995 504.792V500.62H42.675V499.5H40.995V497.848L39.763 497.4V499.5H38.377V500.62H39.763V504.876C39.763 506.038 40.421 506.64 41.485 506.64ZM44.1056 506.5H45.3376V501.796C45.8556 501.04 46.5836 500.452 47.4376 500.452C48.3616 500.452 48.8656 500.97 48.8656 501.894V506.5H50.0976V501.67C50.0976 500.256 49.2856 499.36 47.7876 499.36C46.7516 499.36 45.8276 499.892 45.3376 500.41V499.5H44.1056V506.5ZM54.9369 506.64C56.6589 506.64 57.7789 505.66 58.1569 504.106H57.0089C56.7569 504.946 56.0429 505.52 54.9509 505.52C53.6909 505.52 52.8089 504.736 52.7669 503.392H58.2269V502.916C58.2269 500.662 56.8129 499.36 54.9369 499.36C53.1029 499.36 51.5209 500.816 51.5209 503C51.5209 505.184 52.8089 506.64 54.9369 506.64ZM52.7809 502.328C52.9769 501.152 53.8449 500.48 54.9369 500.48C56.0289 500.48 56.9669 501.096 57.0649 502.328H52.7809ZM59.6232 506.5H60.8552V501.796C61.3172 500.928 62.0452 500.452 62.8292 500.452C63.0672 500.452 63.1652 500.466 63.2772 500.494L63.4732 499.472C63.3472 499.402 63.1652 499.36 62.9132 499.36C62.0312 499.36 61.3312 499.864 60.8552 500.41V499.5H59.6232V506.5ZM66.9531 506.64C68.5491 506.64 69.5991 505.66 69.5991 504.372C69.5991 503.28 68.8011 502.748 67.3311 502.356C66.0711 502.02 65.4971 501.74 65.4971 501.222C65.4971 500.662 66.1411 500.424 66.6871 500.424C67.4571 500.424 68.0031 500.816 68.1011 501.572H69.3191C69.1931 500.13 68.1851 499.36 66.6871 499.36C65.2871 499.36 64.3211 500.228 64.3211 501.25C64.3211 502.342 64.9931 502.916 66.3791 503.266C67.7511 503.616 68.3951 503.896 68.3951 504.526C68.3951 505.17 67.7231 505.52 66.9811 505.52C65.8611 505.52 65.4131 505.03 65.2311 504.316H64.0691C64.2091 505.772 65.2871 506.64 66.9531 506.64ZM71.0529 506.5H72.2849V501.712C72.8029 500.984 73.6429 500.452 74.4689 500.452C75.3789 500.452 75.9809 500.97 75.9809 501.894V506.5H77.2129V501.67C77.2129 500.256 76.3169 499.36 74.8189 499.36C73.7409 499.36 72.7749 499.892 72.2849 500.41V496.28H71.0529V506.5ZM79.6259 498.436C80.0879 498.436 80.4659 498.058 80.4659 497.596C80.4659 497.134 80.0879 496.756 79.6259 496.756C79.1639 496.756 78.7859 497.134 78.7859 497.596C78.7859 498.058 79.1639 498.436 79.6259 498.436ZM79.0099 506.5H80.2419V499.5H79.0099V506.5ZM82.0861 509.3H83.3181V505.758C83.8501 506.318 84.6761 506.64 85.5721 506.64C87.4061 506.64 88.7501 505.24 88.7501 503C88.7501 500.76 87.2661 499.36 85.5441 499.36C84.4661 499.36 83.7241 499.836 83.3181 500.27V499.5H82.0861V509.3ZM85.3481 505.52C84.2421 505.52 83.3181 504.652 83.3181 503.658V502.314C83.3181 501.32 84.2421 500.48 85.3481 500.48C86.5241 500.48 87.5181 501.236 87.5181 503C87.5181 504.764 86.5241 505.52 85.3481 505.52ZM96.016 506.64C97.094 506.64 97.836 506.164 98.242 505.73V506.5H99.474V496.28H98.242V500.242C97.71 499.682 96.884 499.36 95.988 499.36C94.154 499.36 92.81 500.76 92.81 503C92.81 505.24 94.294 506.64 96.016 506.64ZM96.212 505.52C95.036 505.52 94.042 504.764 94.042 503C94.042 501.236 95.036 500.48 96.212 500.48C97.318 500.48 98.242 501.348 98.242 502.342V503.686C98.242 504.68 97.318 505.52 96.212 505.52ZM104.556 506.64C106.698 506.64 108.154 505.086 108.154 503C108.154 500.914 106.698 499.36 104.556 499.36C102.414 499.36 100.958 500.914 100.958 503C100.958 505.086 102.414 506.64 104.556 506.64ZM104.556 505.52C103.226 505.52 102.19 504.652 102.19 503C102.19 501.348 103.226 500.48 104.556 500.48C105.886 500.48 106.922 501.348 106.922 503C106.922 504.652 105.886 505.52 104.556 505.52ZM112.771 506.64C114.563 506.64 115.823 505.66 116.075 503.966H114.913C114.689 504.932 113.961 505.52 112.785 505.52C111.469 505.52 110.503 504.582 110.503 503C110.503 501.418 111.469 500.48 112.785 500.48C113.961 500.48 114.689 501.068 114.913 502.034H116.075C115.823 500.34 114.563 499.36 112.771 499.36C110.769 499.36 109.271 500.816 109.271 503C109.271 505.184 110.769 506.64 112.771 506.64ZM119.819 506.64C120.855 506.64 121.779 506.108 122.269 505.59V506.5H123.501V499.5H122.269V504.204C121.751 504.96 121.023 505.548 120.169 505.548C119.245 505.548 118.741 505.03 118.741 504.106V499.5H117.509V504.33C117.509 505.744 118.321 506.64 119.819 506.64ZM125.344 506.5H126.576V501.614C127.038 500.97 127.682 500.452 128.354 500.452C129.152 500.452 129.474 500.928 129.474 501.67V506.5H130.706V501.446C131.168 500.802 131.77 500.452 132.47 500.452C133.24 500.452 133.604 500.9 133.604 501.614V506.5H134.836V501.25C134.836 500.158 134.206 499.36 132.778 499.36C131.91 499.36 131.14 499.738 130.454 500.368C130.104 499.696 129.6 499.36 128.704 499.36C127.836 499.36 127.122 499.738 126.576 500.326V499.5H125.344V506.5ZM139.675 506.64C141.397 506.64 142.517 505.66 142.895 504.106H141.747C141.495 504.946 140.781 505.52 139.689 505.52C138.429 505.52 137.547 504.736 137.505 503.392H142.965V502.916C142.965 500.662 141.551 499.36 139.675 499.36C137.841 499.36 136.259 500.816 136.259 503C136.259 505.184 137.547 506.64 139.675 506.64ZM137.519 502.328C137.715 501.152 138.583 500.48 139.675 500.48C140.767 500.48 141.705 501.096 141.803 502.328H137.519ZM144.361 506.5H145.594V501.796C146.112 501.04 146.84 500.452 147.694 500.452C148.618 500.452 149.122 500.97 149.122 501.894V506.5H150.354V501.67C150.354 500.256 149.542 499.36 148.044 499.36C147.008 499.36 146.084 499.892 145.594 500.41V499.5H144.361V506.5ZM154.415 506.64C154.891 506.64 155.157 506.598 155.535 506.5V505.464C155.283 505.506 155.115 505.548 154.793 505.548C154.191 505.548 153.925 505.254 153.925 504.792V500.62H155.605V499.5H153.925V497.848L152.693 497.4V499.5H151.307V500.62H152.693V504.876C152.693 506.038 153.351 506.64 154.415 506.64ZM158.925 506.64C159.905 506.64 160.815 506.024 161.291 505.492C161.487 506.332 162.061 506.584 162.677 506.584C162.901 506.584 163.125 506.556 163.461 506.444V505.52C163.321 505.562 163.209 505.576 163.097 505.576C162.677 505.576 162.481 505.296 162.481 504.848V501.572C162.481 500.242 161.417 499.36 159.779 499.36C158.519 499.36 157.231 500.046 157.007 501.614H158.169C158.365 500.816 158.953 500.48 159.695 500.48C160.591 500.48 161.249 500.872 161.249 501.712V502.188L159.065 502.412C157.805 502.538 156.699 503.238 156.699 504.61C156.699 505.856 157.609 506.64 158.925 506.64ZM159.065 505.52C158.421 505.52 157.931 505.212 157.931 504.554C157.931 503.994 158.323 503.504 159.149 503.406L161.249 503.168V504.428C160.633 505.044 159.919 505.52 159.065 505.52ZM166.788 506.64C167.264 506.64 167.53 506.598 167.908 506.5V505.464C167.656 505.506 167.488 505.548 167.166 505.548C166.564 505.548 166.298 505.254 166.298 504.792V500.62H167.978V499.5H166.298V497.848L165.066 497.4V499.5H163.68V500.62H165.066V504.876C165.066 506.038 165.724 506.64 166.788 506.64ZM170.024 498.436C170.486 498.436 170.864 498.058 170.864 497.596C170.864 497.134 170.486 496.756 170.024 496.756C169.562 496.756 169.184 497.134 169.184 497.596C169.184 498.058 169.562 498.436 170.024 498.436ZM169.408 506.5H170.64V499.5H169.408V506.5ZM175.719 506.64C177.861 506.64 179.317 505.086 179.317 503C179.317 500.914 177.861 499.36 175.719 499.36C173.577 499.36 172.121 500.914 172.121 503C172.121 505.086 173.577 506.64 175.719 506.64ZM175.719 505.52C174.389 505.52 173.353 504.652 173.353 503C173.353 501.348 174.389 500.48 175.719 500.48C177.049 500.48 178.085 501.348 178.085 503C178.085 504.652 177.049 505.52 175.719 505.52ZM180.797 506.5H182.029V501.796C182.547 501.04 183.275 500.452 184.129 500.452C185.053 500.452 185.557 500.97 185.557 501.894V506.5H186.789V501.67C186.789 500.256 185.977 499.36 184.479 499.36C183.443 499.36 182.519 499.892 182.029 500.41V499.5H180.797V506.5Z" fill="#0B0E0F"/>
<circle cx="267.5" cy="502.5" r="11" fill="#FFE7DA" stroke="#FF7E35"/>
<path d="M264.667 499.667L270.334 505.333" stroke="#FF7E35" stroke-width="1.5" stroke-linecap="round" stroke-linejoin="round"/>
<path d="M270.334 499.667L264.667 505.333" stroke="#FF7E35" stroke-width="1.5" stroke-linecap="round" stroke-linejoin="round"/>
<circle cx="450" cy="502.5" r="11" fill="#B4F481" stroke="black"/>
<path fill-rule="evenodd" clip-rule="evenodd" d="M455.507 498.197C455.812 498.477 455.833 498.951 455.553 499.257L448.678 506.757C448.54 506.908 448.346 506.995 448.141 507C447.937 507.004 447.739 506.925 447.595 506.78L444.47 503.655C444.177 503.362 444.177 502.888 444.47 502.595C444.763 502.302 445.237 502.302 445.53 502.595L448.101 505.166L454.447 498.243C454.727 497.938 455.201 497.917 455.507 498.197Z" fill="#22282F"/>
<circle cx="632.5" cy="502.5" r="11" fill="#B4F481" stroke="black"/>
<path fill-rule="evenodd" clip-rule="evenodd" d="M638.007 498.197C638.312 498.477 638.333 498.951 638.053 499.257L631.178 506.757C631.04 506.908 630.846 506.995 630.641 507C630.437 507.004 630.239 506.925 630.095 506.78L626.97 503.655C626.677 503.362 626.677 502.888 626.97 502.595C627.263 502.302 627.737 502.302 628.03 502.595L630.601 505.166L636.947 498.243C637.227 497.938 637.701 497.917 638.007 498.197Z" fill="#22282F"/>
<circle cx="815" cy="502.5" r="11" fill="#B4F481" stroke="black"/>
<path fill-rule="evenodd" clip-rule="evenodd" d="M820.507 498.197C820.812 498.477 820.833 498.951 820.553 499.257L813.678 506.757C813.54 506.908 813.346 506.995 813.141 507C812.937 507.004 812.739 506.925 812.595 506.78L809.47 503.655C809.177 503.362 809.177 502.888 809.47 502.595C809.763 502.302 810.237 502.302 810.53 502.595L813.101 505.166L819.447 498.243C819.727 497.938 820.201 497.917 820.507 498.197Z" fill="#22282F"/>
<rect x="0.5" y="474.5" width="970" height="56" stroke="#F0F3F4"/>
<rect x="0.5" y="529.5" width="970" height="56" fill="white"/>
<path d="M20.052 561.5H21.564L23.734 553.548L25.904 561.5H27.416L30.244 551.7H28.816L26.87 558.938L26.632 560.17L26.422 558.938L24.448 551.7H23.02L21.046 558.938L20.836 560.17L20.598 558.938L18.652 551.7H17.224L20.052 561.5ZM34.1189 561.64C36.2609 561.64 37.7169 560.086 37.7169 558C37.7169 555.914 36.2609 554.36 34.1189 554.36C31.9769 554.36 30.5209 555.914 30.5209 558C30.5209 560.086 31.9769 561.64 34.1189 561.64ZM34.1189 560.52C32.7889 560.52 31.7529 559.652 31.7529 558C31.7529 556.348 32.7889 555.48 34.1189 555.48C35.4489 555.48 36.4849 556.348 36.4849 558C36.4849 559.652 35.4489 560.52 34.1189 560.52ZM39.1974 561.5H40.4294V556.796C40.8914 555.928 41.6194 555.452 42.4034 555.452C42.6414 555.452 42.7394 555.466 42.8514 555.494L43.0474 554.472C42.9214 554.402 42.7394 554.36 42.4874 554.36C41.6054 554.36 40.9054 554.864 40.4294 555.41V554.5H39.1974V561.5ZM44.3381 561.5H45.5701V558.364L48.3701 561.5H49.9381L46.5221 557.65L49.6441 554.5H48.0481L45.5701 557.02V551.28H44.3381V561.5ZM51.8187 561.5H53.0507V555.62H54.6187V554.5H53.0507V553.1C53.0507 552.526 53.3867 552.232 53.8627 552.232C54.1987 552.232 54.4927 552.33 54.6607 552.386V551.28C54.4787 551.21 54.1707 551.14 53.7787 551.14C52.7147 551.14 51.8187 551.742 51.8187 553.17V554.5H50.6147V555.62H51.8187V561.5ZM55.9728 561.5H57.2048V551.28H55.9728V561.5ZM62.283 561.64C64.425 561.64 65.881 560.086 65.881 558C65.881 555.914 64.425 554.36 62.283 554.36C60.141 554.36 58.685 555.914 58.685 558C58.685 560.086 60.141 561.64 62.283 561.64ZM62.283 560.52C60.953 560.52 59.917 559.652 59.917 558C59.917 556.348 60.953 555.48 62.283 555.48C63.613 555.48 64.649 556.348 64.649 558C64.649 559.652 63.613 560.52 62.283 560.52ZM68.6541 561.5H70.0261L71.5521 555.928L73.0921 561.5H74.4641L76.5641 554.5H75.2621L73.9461 559.022L73.7501 560.268L73.5121 559.022L72.1821 554.5H70.9361L69.5921 559.022L69.3681 560.268L69.1721 559.022L67.8561 554.5H66.5541L68.6541 561.5ZM83.2526 561.64C83.7286 561.64 83.9946 561.598 84.3726 561.5V560.464C84.1206 560.506 83.9526 560.548 83.6306 560.548C83.0286 560.548 82.7626 560.254 82.7626 559.792V555.62H84.4426V554.5H82.7626V552.848L81.5306 552.4V554.5H80.1446V555.62H81.5306V559.876C81.5306 561.038 82.1886 561.64 83.2526 561.64ZM88.7612 561.64C90.4832 561.64 91.6032 560.66 91.9812 559.106H90.8332C90.5812 559.946 89.8672 560.52 88.7752 560.52C87.5152 560.52 86.6332 559.736 86.5912 558.392H92.0512V557.916C92.0512 555.662 90.6372 554.36 88.7612 554.36C86.9272 554.36 85.3452 555.816 85.3452 558C85.3452 560.184 86.6332 561.64 88.7612 561.64ZM86.6052 557.328C86.8012 556.152 87.6692 555.48 88.7612 555.48C89.8532 555.48 90.7912 556.096 90.8892 557.328H86.6052ZM95.8554 561.64C97.4514 561.64 98.5014 560.66 98.5014 559.372C98.5014 558.28 97.7034 557.748 96.2334 557.356C94.9734 557.02 94.3994 556.74 94.3994 556.222C94.3994 555.662 95.0434 555.424 95.5894 555.424C96.3594 555.424 96.9054 555.816 97.0034 556.572H98.2214C98.0954 555.13 97.0874 554.36 95.5894 554.36C94.1894 554.36 93.2234 555.228 93.2234 556.25C93.2234 557.342 93.8954 557.916 95.2814 558.266C96.6534 558.616 97.2974 558.896 97.2974 559.526C97.2974 560.17 96.6254 560.52 95.8834 560.52C94.7634 560.52 94.3154 560.03 94.1334 559.316H92.9714C93.1114 560.772 94.1894 561.64 95.8554 561.64ZM102.257 561.64C102.733 561.64 102.999 561.598 103.377 561.5V560.464C103.125 560.506 102.957 560.548 102.635 560.548C102.033 560.548 101.767 560.254 101.767 559.792V555.62H103.447V554.5H101.767V552.848L100.535 552.4V554.5H99.1485V555.62H100.535V559.876C100.535 561.038 101.193 561.64 102.257 561.64ZM110.869 561.64C112.591 561.64 113.711 560.66 114.089 559.106H112.941C112.689 559.946 111.975 560.52 110.883 560.52C109.623 560.52 108.741 559.736 108.699 558.392H114.159V557.916C114.159 555.662 112.745 554.36 110.869 554.36C109.035 554.36 107.453 555.816 107.453 558C107.453 560.184 108.741 561.64 110.869 561.64ZM108.713 557.328C108.909 556.152 109.777 555.48 110.869 555.48C111.961 555.48 112.899 556.096 112.997 557.328H108.713ZM114.349 561.5H115.721L117.541 558.588L119.361 561.5H120.733L118.255 557.636L120.411 554.5H119.039L117.541 556.726L116.043 554.5H114.671L116.827 557.636L114.349 561.5ZM124.431 561.64C126.153 561.64 127.273 560.66 127.651 559.106H126.503C126.251 559.946 125.537 560.52 124.445 560.52C123.185 560.52 122.303 559.736 122.261 558.392H127.721V557.916C127.721 555.662 126.307 554.36 124.431 554.36C122.597 554.36 121.015 555.816 121.015 558C121.015 560.184 122.303 561.64 124.431 561.64ZM122.275 557.328C122.471 556.152 123.339 555.48 124.431 555.48C125.523 555.48 126.461 556.096 126.559 557.328H122.275ZM132.253 561.64C134.045 561.64 135.305 560.66 135.557 558.966H134.395C134.171 559.932 133.443 560.52 132.267 560.52C130.951 560.52 129.985 559.582 129.985 558C129.985 556.418 130.951 555.48 132.267 555.48C133.443 555.48 134.171 556.068 134.395 557.034H135.557C135.305 555.34 134.045 554.36 132.253 554.36C130.251 554.36 128.753 555.816 128.753 558C128.753 560.184 130.251 561.64 132.253 561.64ZM139.301 561.64C140.337 561.64 141.261 561.108 141.751 560.59V561.5H142.983V554.5H141.751V559.204C141.233 559.96 140.505 560.548 139.651 560.548C138.727 560.548 138.223 560.03 138.223 559.106V554.5H136.991V559.33C136.991 560.744 137.803 561.64 139.301 561.64ZM147.346 561.64C147.822 561.64 148.088 561.598 148.466 561.5V560.464C148.214 560.506 148.046 560.548 147.724 560.548C147.122 560.548 146.856 560.254 146.856 559.792V555.62H148.536V554.5H146.856V552.848L145.624 552.4V554.5H144.238V555.62H145.624V559.876C145.624 561.038 146.282 561.64 147.346 561.64ZM150.583 553.436C151.045 553.436 151.423 553.058 151.423 552.596C151.423 552.134 151.045 551.756 150.583 551.756C150.121 551.756 149.743 552.134 149.743 552.596C149.743 553.058 150.121 553.436 150.583 553.436ZM149.967 561.5H151.199V554.5H149.967V561.5ZM156.277 561.64C158.419 561.64 159.875 560.086 159.875 558C159.875 555.914 158.419 554.36 156.277 554.36C154.135 554.36 152.679 555.914 152.679 558C152.679 560.086 154.135 561.64 156.277 561.64ZM156.277 560.52C154.947 560.52 153.911 559.652 153.911 558C153.911 556.348 154.947 555.48 156.277 555.48C157.607 555.48 158.643 556.348 158.643 558C158.643 559.652 157.607 560.52 156.277 560.52ZM161.356 561.5H162.588V556.796C163.106 556.04 163.834 555.452 164.688 555.452C165.612 555.452 166.116 555.97 166.116 556.894V561.5H167.348V556.67C167.348 555.256 166.536 554.36 165.038 554.36C164.002 554.36 163.078 554.892 162.588 555.41V554.5H161.356V561.5Z" fill="#0B0E0F"/>
<circle cx="267.5" cy="557.5" r="11" fill="#FFE7DA" stroke="#FF7E35"/>
<path d="M264.667 554.667L270.334 560.333" stroke="#FF7E35" stroke-width="1.5" stroke-linecap="round" stroke-linejoin="round"/>
<path d="M270.334 554.667L264.667 560.333" stroke="#FF7E35" stroke-width="1.5" stroke-linecap="round" stroke-linejoin="round"/>
<circle cx="450" cy="557.5" r="11" fill="#FFE7DA" stroke="#FF7E35"/>
<path d="M447.167 554.667L452.834 560.333" stroke="#FF7E35" stroke-width="1.5" stroke-linecap="round" stroke-linejoin="round"/>
<path d="M452.834 554.667L447.167 560.333" stroke="#FF7E35" stroke-width="1.5" stroke-linecap="round" stroke-linejoin="round"/>
<circle cx="632.5" cy="557.5" r="11" fill="#B4F481" stroke="black"/>
<path fill-rule="evenodd" clip-rule="evenodd" d="M638.007 553.197C638.312 553.477 638.333 553.951 638.053 554.257L631.178 561.757C631.04 561.908 630.846 561.995 630.641 562C630.437 562.004 630.239 561.925 630.095 561.78L626.97 558.655C626.677 558.362 626.677 557.888 626.97 557.595C627.263 557.302 627.737 557.302 628.03 557.595L630.601 560.166L636.947 553.243C637.227 552.938 637.701 552.917 638.007 553.197Z" fill="#22282F"/>
<circle cx="815" cy="557.5" r="11" fill="#B4F481" stroke="black"/>
<path fill-rule="evenodd" clip-rule="evenodd" d="M820.507 553.197C820.812 553.477 820.833 553.951 820.553 554.257L813.678 561.757C813.54 561.908 813.346 561.995 813.141 562C812.937 562.004 812.739 561.925 812.595 561.78L809.47 558.655C809.177 558.362 809.177 557.888 809.47 557.595C809.763 557.302 810.237 557.302 810.53 557.595L813.101 560.166L819.447 553.243C819.727 552.938 820.201 552.917 820.507 553.197Z" fill="#22282F"/>
<rect x="0.5" y="529.5" width="970" height="56" stroke="#F0F3F4"/>
</svg>
