<svg width="375" height="122" viewBox="0 0 375 122" fill="none" xmlns="http://www.w3.org/2000/svg">
<rect x="248.5" y="0.5" width="121" height="121" rx="13.4784" transform="rotate(90 248.5 0.5)" fill="#F2FFE6" stroke="black"/>
<path d="M151.385 65.7402C146.279 64.4683 146.279 57.2117 151.385 55.9398L156.936 54.5567C160.944 53.5584 162.795 48.9271 160.58 45.4414L157.732 40.9592C154.997 36.6559 159.637 31.4725 164.216 33.7159L172.215 37.6349C175.524 39.2561 179.501 37.5682 180.634 34.062L183.211 26.0848C184.718 21.4217 191.315 21.4217 192.822 26.0848L195.399 34.0621C196.532 37.5682 200.509 39.2561 203.818 37.6349L211.817 33.7159C216.396 31.4725 221.036 36.6559 218.301 40.9592L215.453 45.4414C213.238 48.9271 215.089 53.5584 219.097 54.5567L224.648 55.9398C229.754 57.2117 229.754 64.4683 224.648 65.7402L219.097 67.1233C215.089 68.1217 213.238 72.753 215.453 76.2386L218.301 80.7208C221.036 85.0241 216.396 90.2075 211.817 87.9641L203.818 84.0451C200.509 82.4239 196.532 84.1118 195.399 87.618L192.822 95.5952C191.315 100.258 184.718 100.258 183.211 95.5952L180.634 87.618C179.501 84.1118 175.524 82.4239 172.215 84.0451L164.216 87.9641C159.637 90.2075 154.997 85.0241 157.732 80.7208L160.58 76.2386C162.795 72.7529 160.944 68.1216 156.936 67.1233L151.385 65.7402Z" fill="#B4F481" stroke="black"/>
<rect x="450.378" y="90.3784" width="176.757" height="57.7568" rx="28.8784" transform="rotate(180 450.378 90.3784)" fill="#FFD1CE" stroke="black" stroke-width="0.756818"/>
<rect x="352.5" y="75.5" width="26" height="75" rx="13" transform="rotate(-90 352.5 75.5)" fill="#FFECEA" stroke="black"/>
<rect x="102.378" y="90.3784" width="176.757" height="57.7568" rx="12.3784" transform="rotate(180 102.378 90.3784)" fill="#EAEAFF" stroke="black" stroke-width="0.756818"/>
<path d="M38.4704 62.6515C38.4704 55.5395 44.3426 49.7625 51.6007 49.7625C58.8588 49.7625 64.731 55.5395 64.731 62.6515C64.731 69.7635 58.8588 75.5405 51.6007 75.5405C44.3426 75.5405 38.4704 69.7635 38.4704 62.6515Z" fill="#B5B6FF" stroke="black" stroke-width="0.756818"/>
<path d="M-0.607682 62.6515C-0.607683 55.5395 5.26448 49.7625 12.5226 49.7625C19.7807 49.7625 25.6528 55.5395 25.6528 62.6515C25.6528 69.7635 19.7807 75.5405 12.5226 75.5405C5.26448 75.5405 -0.607682 69.7635 -0.607682 62.6515Z" fill="#B5B6FF" stroke="black" stroke-width="0.756818"/>
</svg>
