<svg width="273" height="429" viewBox="0 0 273 429" fill="none" xmlns="http://www.w3.org/2000/svg">
<path d="M271.625 211.521C271.625 223.653 261.79 233.488 249.658 233.488L200.004 233.488C188.229 233.488 177.427 226.952 171.964 216.521C166.328 205.76 155.185 199.017 143.038 199.017L52.4513 199.017L34.3982 199.017C16.229 199.017 1.49994 184.288 1.49994 166.119L1.49993 40.5217C1.49993 18.4183 19.4182 0.500028 41.5216 0.500027L231.603 0.500017C253.706 0.500016 271.625 18.4184 271.625 40.5217L271.625 211.521Z" fill="#FFF1DB" stroke="black"/>
<rect x="141.229" y="22.7682" width="156.082" height="122.131" rx="24.6738" transform="rotate(90 141.229 22.7682)" fill="#FFDFB4" stroke="black"/>
<rect x="161.327" y="222.846" width="205.041" height="160.626" rx="24.6738" transform="rotate(90 161.327 222.846)" fill="#FFDFB4" stroke="black"/>
<path d="M219.045 53.1901C210.055 53.1901 201.941 51.5392 196.092 48.8911C190.198 46.2222 186.793 42.6378 186.793 38.8603C186.793 35.0828 190.198 31.4984 196.092 28.8295C201.941 26.1814 210.055 24.5305 219.045 24.5305C228.035 24.5305 236.15 26.1814 241.998 28.8295C247.893 31.4984 251.298 35.0828 251.298 38.8603C251.298 42.6378 247.893 46.2222 241.998 48.8911C236.15 51.5392 228.035 53.1901 219.045 53.1901Z" fill="#FFC069" stroke="black"/>
<path d="M219.045 75.4348C210.055 75.4348 201.941 73.7839 196.092 71.1358C190.198 68.467 186.793 64.8825 186.793 61.1051C186.793 57.3276 190.198 53.7431 196.092 51.0743C201.941 48.4262 210.055 46.7753 219.045 46.7753C228.035 46.7753 236.15 48.4262 241.998 51.0743C247.893 53.7432 251.298 57.3276 251.298 61.1051C251.298 64.8825 247.893 68.467 241.998 71.1358C236.15 73.7839 228.035 75.4349 219.045 75.4348Z" fill="#FFDFB4" stroke="black"/>
<path d="M219.045 97.6795C210.055 97.6795 201.941 96.0286 196.092 93.3804C190.198 90.7116 186.793 87.1271 186.793 83.3497C186.793 79.5722 190.198 75.9878 196.092 73.3189C201.941 70.6708 210.055 69.0199 219.045 69.0199C228.035 69.0199 236.15 70.6708 241.998 73.3189C247.893 75.9878 251.298 79.5722 251.298 83.3497C251.298 87.1272 247.893 90.7116 241.998 93.3805C236.15 96.0286 228.035 97.6795 219.045 97.6795Z" fill="#FFDFB4" stroke="black"/>
<path d="M219.045 119.924C210.055 119.924 201.941 118.273 196.092 115.625C190.198 112.956 186.793 109.372 186.793 105.594C186.793 101.817 190.198 98.2324 196.092 95.5635C201.941 92.9154 210.055 91.2645 219.045 91.2645C228.035 91.2645 236.15 92.9154 241.998 95.5636C247.893 98.2324 251.298 101.817 251.298 105.594C251.298 109.372 247.893 112.956 241.998 115.625C236.15 118.273 228.035 119.924 219.045 119.924Z" fill="#FFDFB4" stroke="black"/>
<path d="M219.045 142.168C210.055 142.168 201.941 140.517 196.092 137.869C190.198 135.2 186.793 131.616 186.793 127.838C186.793 124.061 190.198 120.477 196.092 117.808C201.941 115.16 210.055 113.509 219.045 113.509C228.035 113.509 236.15 115.16 241.998 117.808C247.893 120.477 251.298 124.061 251.298 127.838C251.298 131.616 247.893 135.2 241.998 137.869C236.15 140.517 228.035 142.168 219.045 142.168Z" fill="#FFDFB4" stroke="black"/>
<path d="M219.045 164.414C210.055 164.414 201.941 162.763 196.092 160.115C190.198 157.446 186.793 153.861 186.793 150.084C186.793 146.306 190.198 142.722 196.092 140.053C201.941 137.405 210.055 135.754 219.045 135.754C228.035 135.754 236.15 137.405 241.998 140.053C247.893 142.722 251.298 146.306 251.298 150.084C251.298 153.861 247.893 157.446 241.998 160.115C236.15 162.763 228.035 164.414 219.045 164.414Z" fill="#FFDFB4" stroke="black"/>
<path d="M219.045 186.658C210.055 186.658 201.941 185.007 196.092 182.359C190.198 179.69 186.793 176.106 186.793 172.328C186.793 168.551 190.198 164.966 196.092 162.297C201.941 159.649 210.055 157.998 219.045 157.998C228.035 157.998 236.15 159.649 241.998 162.297C247.893 164.966 251.298 168.551 251.298 172.328C251.298 176.106 247.893 179.69 241.998 182.359C236.15 185.007 228.035 186.658 219.045 186.658Z" fill="#FFDFB4" stroke="black"/>
<path d="M219.045 208.903C210.055 208.903 201.941 207.252 196.092 204.604C190.198 201.935 186.793 198.351 186.793 194.573C186.793 190.796 190.198 187.211 196.092 184.542C201.941 181.894 210.055 180.243 219.045 180.243C228.035 180.243 236.15 181.894 241.998 184.542C247.893 187.211 251.298 190.796 251.298 194.573C251.298 198.351 247.893 201.935 241.998 204.604C236.15 207.252 228.035 208.903 219.045 208.903Z" fill="#FFDFB4" stroke="black"/>
<path d="M218.875 34.5344L218.875 203.223" stroke="black"/>
<path d="M223.966 193.955L218.875 203.224L213.784 193.955" stroke="black"/>
<rect x="271.895" y="252.813" width="174.074" height="91.6862" rx="23.6738" transform="rotate(90 271.895 252.813)" fill="#EAEAFF" stroke="black"/>
<path d="M35.5899 296.879C27.3761 296.879 20.7022 290.097 20.7022 281.712C20.7022 273.327 27.3761 266.545 35.5899 266.545C43.8036 266.545 50.4775 273.327 50.4775 281.712C50.4775 290.097 43.8036 296.879 35.5899 296.879Z" fill="#EAEAFF" stroke="black"/>
<path d="M35.5896 342.203C27.3758 342.203 20.7019 335.421 20.7019 327.036C20.7019 318.651 27.3758 311.869 35.5896 311.869C43.8034 311.869 50.4773 318.651 50.4773 327.036C50.4773 335.421 43.8034 342.203 35.5896 342.203Z" fill="#EAEAFF" stroke="black"/>
<path d="M35.5896 387.527C27.3758 387.527 20.7019 380.744 20.7019 372.359C20.7019 363.974 27.3758 357.192 35.5896 357.192C43.8034 357.192 50.4773 363.974 50.4773 372.359C50.4773 380.744 43.8034 387.527 35.5896 387.527Z" fill="#EAEAFF" stroke="black"/>
</svg>
