<svg width="309" height="450" viewBox="0 0 309 450" fill="none" xmlns="http://www.w3.org/2000/svg">
<path d="M170.435 0.500162C183.661 0.500166 194.383 11.222 194.383 24.448L194.383 75.1249C194.383 85.2375 189.287 94.6691 180.828 100.211C172.087 105.938 166.821 115.684 166.821 126.133L166.821 219.729V237.787C166.821 255.96 152.088 270.693 133.914 270.693L42.3171 270.693C23.5269 270.693 8.29443 255.461 8.29443 236.67L8.29443 34.5228C8.29443 15.7326 23.5269 0.500124 42.3171 0.500129L170.435 0.500162Z" fill="#F2FFE6" stroke="black"/>
<rect x="307.667" y="0.500122" width="88.2534" height="95.119" rx="20.0969" transform="rotate(90 307.667 0.500122)" fill="#DAFAC0" stroke="black"/>
<path d="M214.678 449.196L214.666 449.196C214.511 449.198 214.357 449.199 214.202 449.199L37.5485 449.199C21.1154 449.199 7.97973 438.407 7.97974 425.301L7.97976 318.562C7.97976 305.456 21.1154 294.664 37.5485 294.664L159.67 294.664C173.976 294.664 185.573 283.067 185.573 268.761L185.573 132.53C185.573 119.425 198.709 108.633 215.142 108.633L278.098 108.633C294.531 108.633 307.667 119.425 307.667 132.53L307.667 425.301C307.667 438.407 294.531 449.199 278.098 449.199L215.142 449.199C214.987 449.199 214.832 449.198 214.678 449.196Z" fill="#FFD1CE" stroke="black"/>
<path d="M31.9735 203.121C24.2111 201.187 24.2111 190.155 31.9735 188.221L40.1539 186.183C45.9019 184.751 48.5573 178.108 45.3803 173.108L41.1836 166.504C37.0261 159.961 44.0807 152.081 51.0419 155.492L62.8278 161.266C67.5737 163.591 73.2785 161.17 74.9034 156.141L78.7012 144.387C80.9918 137.297 91.0224 137.297 93.313 144.387L97.1108 156.141C98.7357 161.17 104.441 163.591 109.186 161.266L120.972 155.492C127.934 152.081 134.988 159.961 130.831 166.504L126.634 173.108C123.457 178.108 126.112 184.751 131.86 186.183L140.041 188.221C147.803 190.155 147.803 201.187 140.041 203.121L131.86 205.159C126.112 206.591 123.457 213.234 126.634 218.234L130.831 224.838C134.988 231.381 127.934 239.261 120.972 235.85L109.186 230.076C104.44 227.751 98.7357 230.172 97.1108 235.201L93.313 246.955C91.0223 254.045 80.9918 254.045 78.7012 246.955L74.9034 235.201C73.2785 230.172 67.5737 227.751 62.8277 230.076L51.0419 235.85C44.0806 239.261 37.026 231.381 41.1836 224.838L45.3803 218.234C48.5573 213.234 45.9019 206.591 40.1539 205.159L31.9735 203.121Z" fill="#B4F481" stroke="black"/>
<rect x="142.175" y="309.454" width="44.2666" height="128.036" rx="22.1333" fill="#FFA39E" stroke="black"/>
<rect x="194.205" y="370.33" width="44.2666" height="67.1601" rx="22.1333" fill="#FFA39E" stroke="black"/>
<rect x="246.236" y="336.51" width="44.2666" height="100.98" rx="22.1333" fill="#FFA39E" stroke="black"/>
</svg>
